<?xml version="1.0" encoding="UTF-8"?>
<!DOCTYPE svg PUBLIC "-//W3C//DTD SVG 1.1//EN" "http://www.w3.org/Graphics/SVG/1.1/DTD/svg11.dtd">
<svg xmlns="http://www.w3.org/2000/svg" xmlns:xlink="http://www.w3.org/1999/xlink" version="1.1" width="769px" height="433px" viewBox="-0.5 -0.5 769 433" style="background-color: rgb(255, 255, 255);"><defs/><g><rect x="0" y="0" width="768" height="432" fill="#dae8fc" stroke="none" pointer-events="all"/><ellipse cx="493" cy="247.5" rx="60" ry="20" fill="rgb(255, 255, 255)" stroke="rgb(0, 0, 0)" pointer-events="all"/><path d="M 357.9 105.73 L 410.54 146.46" fill="none" stroke="rgb(0, 0, 0)" stroke-miterlimit="10" pointer-events="stroke"/><path d="M 414.69 149.67 L 407.01 148.16 L 410.54 146.46 L 411.3 142.62 Z" fill="rgb(0, 0, 0)" stroke="rgb(0, 0, 0)" stroke-miterlimit="10" pointer-events="all"/><path d="M 255 90 Q 235 90 235 168.75 Q 235 247.5 426.63 247.5" fill="none" stroke="rgb(0, 0, 0)" stroke-miterlimit="10" pointer-events="stroke"/><path d="M 431.88 247.5 L 424.88 251 L 426.63 247.5 L 424.88 244 Z" fill="rgb(0, 0, 0)" stroke="rgb(0, 0, 0)" stroke-miterlimit="10" pointer-events="all"/><ellipse cx="315" cy="90" rx="60" ry="22.5" fill="rgb(255, 255, 255)" stroke="rgb(0, 0, 0)" pointer-events="all"/><path d="M 465 90 L 385 127.5" fill="none" stroke="rgb(0, 0, 0)" stroke-miterlimit="10" stroke-dasharray="3 3" pointer-events="stroke"/><path d="M 458 184.5 L 488.98 222.56" fill="none" stroke="rgb(0, 0, 0)" stroke-miterlimit="10" pointer-events="stroke"/><path d="M 492.29 226.63 L 485.16 223.41 L 488.98 222.56 L 490.59 218.99 Z" fill="rgb(0, 0, 0)" stroke="rgb(0, 0, 0)" stroke-miterlimit="10" pointer-events="all"/><ellipse cx="458" cy="164.5" rx="60" ry="20" fill="rgb(255, 255, 255)" stroke="rgb(0, 0, 0)" pointer-events="all"/><path d="M 505 50 L 545 90 L 505 130 L 465 90 Z" fill="rgb(255, 255, 255)" stroke="rgb(0, 0, 0)" stroke-miterlimit="10" pointer-events="all"/><path d="M 450.57 261.64 L 419.14 308.08" fill="none" stroke="rgb(0, 0, 0)" stroke-miterlimit="10" pointer-events="stroke"/><path d="M 416.2 312.43 L 417.23 304.67 L 419.14 308.08 L 423.02 308.6 Z" fill="rgb(0, 0, 0)" stroke="rgb(0, 0, 0)" stroke-miterlimit="10" pointer-events="all"/><path d="M 500.43 313.36 L 531.86 266.92" fill="none" stroke="rgb(0, 0, 0)" stroke-miterlimit="10" pointer-events="stroke"/><path d="M 534.8 262.57 L 533.77 270.33 L 531.86 266.92 L 527.98 266.4 Z" fill="rgb(0, 0, 0)" stroke="rgb(0, 0, 0)" stroke-miterlimit="10" pointer-events="all"/><ellipse cx="458" cy="327.5" rx="60" ry="20" fill="rgb(255, 255, 255)" stroke="rgb(0, 0, 0)" pointer-events="all"/><path d="M 315 267.5 L 355 307.5 L 315 347.5 L 275 307.5 Z" fill="rgb(255, 255, 255)" stroke="rgb(0, 0, 0)" stroke-miterlimit="10" stroke-dasharray="3 3" pointer-events="all"/><path d="M 315 267.5 L 315 237.5" fill="none" stroke="rgb(0, 0, 0)" stroke-miterlimit="10" stroke-dasharray="3 3" pointer-events="stroke"/></g></svg>