<?xml version="1.0" encoding="UTF-8"?>
<!DOCTYPE svg PUBLIC "-//W3C//DTD SVG 1.1//EN" "http://www.w3.org/Graphics/SVG/1.1/DTD/svg11.dtd">
<svg xmlns="http://www.w3.org/2000/svg" xmlns:xlink="http://www.w3.org/1999/xlink" version="1.1" width="769px" height="433px" viewBox="-0.5 -0.5 769 433" style="background-color: rgb(255, 255, 255);"><defs/><g><rect x="0" y="0" width="768" height="432" fill="#dae8fc" stroke="none" pointer-events="all"/><ellipse cx="541" cy="237.5" rx="60" ry="20" fill="rgb(255, 255, 255)" stroke="rgb(0, 0, 0)" pointer-events="all"/><path d="M 273.9 95.73 L 380.65 138.01" fill="none" stroke="rgb(0, 0, 0)" stroke-miterlimit="10" pointer-events="stroke"/><path d="M 385.53 139.95 L 377.74 140.62 L 380.65 138.01 L 380.31 134.11 Z" fill="rgb(0, 0, 0)" stroke="rgb(0, 0, 0)" stroke-miterlimit="10" pointer-events="all"/><path d="M 171 80 Q 151 80 151 158.75 Q 151 237.5 474.63 237.5" fill="none" stroke="rgb(0, 0, 0)" stroke-miterlimit="10" pointer-events="stroke"/><path d="M 479.88 237.5 L 472.88 241 L 474.63 237.5 L 472.88 234 Z" fill="rgb(0, 0, 0)" stroke="rgb(0, 0, 0)" stroke-miterlimit="10" pointer-events="all"/><ellipse cx="231" cy="80" rx="60" ry="22.5" fill="rgb(255, 255, 255)" stroke="rgb(0, 0, 0)" pointer-events="all"/><path d="M 436 80 L 332 118" fill="none" stroke="rgb(0, 0, 0)" stroke-miterlimit="10" stroke-dasharray="3 3" pointer-events="stroke"/><path d="M 429 174.5 L 535.06 215.22" fill="none" stroke="rgb(0, 0, 0)" stroke-miterlimit="10" pointer-events="stroke"/><path d="M 539.96 217.1 L 532.17 217.86 L 535.06 215.22 L 534.68 211.32 Z" fill="rgb(0, 0, 0)" stroke="rgb(0, 0, 0)" stroke-miterlimit="10" pointer-events="all"/><ellipse cx="429" cy="154.5" rx="60" ry="20" fill="rgb(255, 255, 255)" stroke="rgb(0, 0, 0)" pointer-events="all"/><path d="M 476 40 L 516 80 L 476 120 L 436 80 Z" fill="rgb(255, 255, 255)" stroke="rgb(0, 0, 0)" stroke-miterlimit="10" pointer-events="all"/><path d="M 498.57 251.64 L 530.53 310.27" fill="none" stroke="rgb(0, 0, 0)" stroke-miterlimit="10" pointer-events="stroke"/><path d="M 533.04 314.88 L 526.62 310.4 L 530.53 310.27 L 532.76 307.05 Z" fill="rgb(0, 0, 0)" stroke="rgb(0, 0, 0)" stroke-miterlimit="10" pointer-events="all"/><path d="M 618.43 315.86 L 586.47 257.23" fill="none" stroke="rgb(0, 0, 0)" stroke-miterlimit="10" pointer-events="stroke"/><path d="M 583.96 252.62 L 590.38 257.1 L 586.47 257.23 L 584.24 260.45 Z" fill="rgb(0, 0, 0)" stroke="rgb(0, 0, 0)" stroke-miterlimit="10" pointer-events="all"/><ellipse cx="576" cy="330" rx="60" ry="20" fill="rgb(255, 255, 255)" stroke="rgb(0, 0, 0)" pointer-events="all"/><path d="M 286 257.5 L 326 297.5 L 286 337.5 L 246 297.5 Z" fill="rgb(255, 255, 255)" stroke="rgb(0, 0, 0)" stroke-miterlimit="10" stroke-dasharray="3 3" pointer-events="all"/><path d="M 286 257.5 L 286 227.5" fill="none" stroke="rgb(0, 0, 0)" stroke-miterlimit="10" stroke-dasharray="3 3" pointer-events="stroke"/><rect x="87" y="310" width="26" height="18" fill="#fffbc0" stroke="#000000" stroke-width="2" pointer-events="all"/><rect x="40" y="328" width="26" height="18" fill="#fffbc0" stroke="#000000" stroke-width="2" pointer-events="all"/><rect x="134" y="328" width="26" height="18" fill="#fffbc0" stroke="#000000" stroke-width="2" pointer-events="all"/><rect x="40" y="364" width="26" height="18" fill="#fffbc0" stroke="#000000" stroke-width="2" pointer-events="all"/><rect x="134" y="364" width="26" height="18" fill="#fffbc0" stroke="#000000" stroke-width="2" pointer-events="all"/><rect x="87" y="382" width="26" height="18" fill="#fffbc0" stroke="#000000" stroke-width="2" pointer-events="all"/><rect x="87" y="346" width="26" height="18" fill="#c0f5a9" stroke="#000000" stroke-width="2" pointer-events="all"/><path d="M 100 346 L 100 328" fill="none" stroke="rgb(0, 0, 0)" stroke-width="2" stroke-miterlimit="10" pointer-events="stroke"/><path d="M 87 350.02 L 66 341.98" fill="none" stroke="rgb(0, 0, 0)" stroke-width="2" stroke-miterlimit="10" pointer-events="stroke"/><path d="M 113 350.02 L 134 341.98" fill="none" stroke="rgb(0, 0, 0)" stroke-width="2" stroke-miterlimit="10" pointer-events="stroke"/><path d="M 87 359.98 L 66 368.02" fill="none" stroke="rgb(0, 0, 0)" stroke-width="2" stroke-miterlimit="10" pointer-events="stroke"/><path d="M 113 359.98 L 134 368.02" fill="none" stroke="rgb(0, 0, 0)" stroke-width="2" stroke-miterlimit="10" pointer-events="stroke"/><path d="M 100 364 L 100 382" fill="none" stroke="rgb(0, 0, 0)" stroke-width="2" stroke-miterlimit="10" pointer-events="stroke"/><rect x="590" y="30" width="150" height="90" fill="#c0f5a9" stroke="rgb(0, 0, 0)" stroke-width="2" pointer-events="all"/><path d="M 655 75 L 700 75" fill="none" stroke="#000000" stroke-width="2" stroke-miterlimit="10" pointer-events="all"/><path d="M 692 69 L 692 81 L 705 75 Z M 722 67 L 730 75 L 722 83 L 714 75 Z" fill="#000000" stroke="none" pointer-events="all"/><path d="M 636 68 L 636 83 L 651 75 Z" fill="#808080" stroke="none" pointer-events="all"/><path d="M 601 75.25 L 646 75.25" fill="none" stroke="#808080" stroke-width="2" stroke-miterlimit="10" pointer-events="all"/></g></svg>