<?xml version="1.0" encoding="UTF-8"?>
<!DOCTYPE svg PUBLIC "-//W3C//DTD SVG 1.1//EN" "http://www.w3.org/Graphics/SVG/1.1/DTD/svg11.dtd">
<svg xmlns="http://www.w3.org/2000/svg" xmlns:xlink="http://www.w3.org/1999/xlink" version="1.1" width="769px" height="433px" viewBox="-0.5 -0.5 769 433" style="background-color: rgb(255, 255, 255);"><defs/><g><rect x="0" y="0" width="768" height="432" fill="#f5f5f5" stroke="none" pointer-events="all"/><path d="M 196.5 136 L 296.5 136 L 316.5 176 L 296.5 216 L 196.5 216 L 216.5 176 Z" fill="none" stroke="none" pointer-events="all"/><path d="M 196.5 136 C 196.5 136 196.5 136 196.5 136 M 196.5 136 C 196.5 136 196.5 136 196.5 136 M 198.21 140.13 C 199.94 138.86 201.08 137.44 201.49 136.36 M 198.21 140.13 C 199.51 139.13 200.47 137.69 201.49 136.36 M 200.57 143.51 C 201.68 141.97 204.44 139.79 207.13 135.97 M 200.57 143.51 C 202.62 141.27 204.66 138.96 207.13 135.97 M 202.28 147.65 C 204.4 144.03 209.13 140.52 212.12 136.33 M 202.28 147.65 C 204.57 145.21 207.1 141.82 212.12 136.33 M 203.98 151.78 C 209.2 146.54 212.48 142.49 217.76 135.93 M 203.98 151.78 C 206.97 147.69 210.46 145.68 217.76 135.93 M 206.35 155.16 C 210.26 151.39 215.4 144.28 222.75 136.29 M 206.35 155.16 C 211.75 148.04 217.69 141.31 222.75 136.29 M 208.05 159.29 C 217.44 149.77 223.77 139.72 228.39 135.9 M 208.05 159.29 C 215.69 151.81 221.98 141.57 228.39 135.9 M 209.76 163.43 C 216.5 156.43 219.61 148.9 233.38 136.26 M 209.76 163.43 C 218.77 153.07 227.87 141.87 233.38 136.26 M 212.12 166.81 C 224.49 153.42 235.17 143.25 239.02 135.86 M 212.12 166.81 C 217.88 159.74 223.62 152.98 239.02 135.86 M 213.83 170.94 C 223.42 156.88 234.78 146.79 244.01 136.22 M 213.83 170.94 C 224.65 158.2 234.68 145.83 244.01 136.22 M 215.54 175.07 C 225.12 163.95 236 148.59 249.65 135.83 M 215.54 175.07 C 228.61 159.39 242.22 144.35 249.65 135.83 M 218.55 177.7 C 227.63 164.02 238.57 153.03 254.64 136.19 M 218.55 177.7 C 231.27 163.46 242.21 148.82 254.64 136.19 M 211.08 192.4 C 224.22 178.7 239.1 164.13 260.28 135.79 M 211.08 192.4 C 229.5 171.14 247.78 151.37 260.28 135.79 M 204.25 206.34 C 220.59 189.24 236.6 170.83 265.27 136.15 M 204.25 206.34 C 217.8 190.69 230.83 175.85 265.27 136.15 M 199.4 218.02 C 219.01 193.32 240.85 169.27 270.91 135.76 M 199.4 218.02 C 226.57 186.14 253.18 153.6 270.91 135.76 M 204.39 218.38 C 228.73 187.88 257.16 161.18 275.9 136.12 M 204.39 218.38 C 231.41 186.79 258.12 157.73 275.9 136.12 M 210.03 217.99 C 232.91 196.15 252.89 169.53 281.54 135.72 M 210.03 217.99 C 227.95 196.04 247.45 175.53 281.54 135.72 M 215.02 218.35 C 231.75 196.33 252.35 179.13 286.53 136.08 M 215.02 218.35 C 237.87 192.51 260.34 165.43 286.53 136.08 M 220.66 217.95 C 236.52 201.08 249.41 186.61 292.17 135.69 M 220.66 217.95 C 239.09 198.32 254.97 178.01 292.17 135.69 M 225.65 218.31 C 244.7 198.55 263.62 173.42 297.16 136.05 M 225.65 218.31 C 245.82 194.75 268.86 168.44 297.16 136.05 M 230.63 218.67 C 255.97 188.94 281.08 160.78 298.86 140.18 M 230.63 218.67 C 244.6 203.34 258.84 186.54 298.86 140.18 M 236.28 218.28 C 254.88 194.56 275.57 171.92 300.57 144.32 M 236.28 218.28 C 253.61 198.1 272.03 176.23 300.57 144.32 M 241.26 218.64 C 262.18 193.78 283.08 169.94 302.93 147.7 M 241.26 218.64 C 257.68 199.4 274.12 180.78 302.93 147.7 M 246.91 218.24 C 267.3 191.45 288.93 169.18 304.64 151.83 M 246.91 218.24 C 267.01 194.73 286.97 170.69 304.64 151.83 M 251.89 218.6 C 268.56 195.49 288.21 175.9 306.35 155.96 M 251.89 218.6 C 271.61 196.54 290.98 172.82 306.35 155.96 M 257.54 218.21 C 266.63 206.42 277.68 194.87 308.71 159.34 M 257.54 218.21 C 275.37 198.08 294.22 175.96 308.71 159.34 M 262.52 218.57 C 278.27 197.68 295.41 181.89 310.42 163.48 M 262.52 218.57 C 275.54 205.09 287.85 189.74 310.42 163.48 M 268.17 218.18 C 275.53 208.78 287.14 195.38 312.12 167.61 M 268.17 218.18 C 278.71 206.34 288.37 194.02 312.12 167.61 M 273.15 218.54 C 282.85 209.35 289.64 196.12 314.49 170.99 M 273.15 218.54 C 286.88 203.66 299.93 187.53 314.49 170.99 M 278.8 218.14 C 287.85 210.27 294.76 200.21 316.19 175.12 M 278.8 218.14 C 287.46 206.46 297.54 196.35 316.19 175.12 M 283.78 218.5 C 297.71 201.21 312.22 188.02 319.21 177.75 M 283.78 218.5 C 290.44 208.87 300.1 201.58 319.21 177.75 M 289.43 218.11 C 293.75 210.69 301.87 205.32 311.73 192.45 M 289.43 218.11 C 294.3 210.3 300.26 204.93 311.73 192.45" fill="none" stroke="#d5e8d4" stroke-width="0.5" stroke-linejoin="round" stroke-linecap="round" stroke-miterlimit="10" pointer-events="all"/><path d="M 196.5 136 M 196.5 136 C 231.71 134.12 269.42 137.67 296.5 136 M 196.5 136 C 231.95 134.94 267.51 135.79 296.5 136 M 296.5 136 C 305.38 151.79 312.55 166.56 316.5 176 M 296.5 136 C 304.79 150.41 311.51 164.64 316.5 176 M 316.5 176 C 311.89 185.52 307.07 193.67 296.5 216 M 316.5 176 C 312.72 185.65 307.52 194 296.5 216 M 296.5 216 C 268.35 217.28 236.21 218.73 196.5 216 M 296.5 216 C 273.04 216.44 249.18 215.81 196.5 216 M 196.5 216 C 201.1 205.72 206.57 195.62 216.5 176 M 196.5 216 C 202.51 202.43 210.25 189.27 216.5 176 M 216.5 176 C 211.72 165.06 204.3 154.41 196.5 136 M 216.5 176 C 210.36 165.58 205.45 155.15 196.5 136" fill="none" stroke="#82b366" stroke-linejoin="round" stroke-linecap="round" stroke-miterlimit="10" pointer-events="all"/><path d="M 86.5 136 L 186.5 136 L 206.5 176 L 186.5 216 L 86.5 216 L 106.5 176 Z" fill="none" stroke="none" pointer-events="all"/><path d="M 86.5 136 C 86.5 136 86.5 136 86.5 136 M 86.5 136 C 86.5 136 86.5 136 86.5 136 M 88.21 140.13 C 89.25 138.98 89.57 138.84 91.49 136.36 M 88.21 140.13 C 89.23 139.15 90.33 137.75 91.49 136.36 M 90.57 143.51 C 93.14 140.81 94.62 139.67 97.13 135.97 M 90.57 143.51 C 92.56 141.02 94.38 138.84 97.13 135.97 M 92.28 147.65 C 95.78 144.67 97.32 140.19 102.12 136.33 M 92.28 147.65 C 96.43 143.42 99.08 139.69 102.12 136.33 M 93.98 151.78 C 98.1 147.15 103.25 139.66 107.76 135.93 M 93.98 151.78 C 99.21 147.7 102.14 141.03 107.76 135.93 M 96.35 155.16 C 103.27 147.91 106.88 141.79 112.75 136.29 M 96.35 155.16 C 102.44 148.67 106.8 142.97 112.75 136.29 M 98.05 159.29 C 104.81 153.26 110.01 148.82 118.39 135.9 M 98.05 159.29 C 104.7 151.77 111.57 143.11 118.39 135.9 M 99.76 163.43 C 106.73 157.46 111.88 149.18 123.38 136.26 M 99.76 163.43 C 107.56 154.37 117.66 143.12 123.38 136.26 M 102.12 166.81 C 109.57 159.85 113.3 152.97 129.02 135.86 M 102.12 166.81 C 111.59 156.79 120.03 146.38 129.02 135.86 M 103.83 170.94 C 112.94 161.01 122.36 152.11 134.01 136.22 M 103.83 170.94 C 115.45 156.9 125.42 145.08 134.01 136.22 M 105.54 175.07 C 117.21 161.68 127.41 148.34 139.65 135.83 M 105.54 175.07 C 117.61 160.19 131.37 144.16 139.65 135.83 M 108.55 177.7 C 116.13 168.45 128.41 156.72 144.64 136.19 M 108.55 177.7 C 120.48 163.49 131.81 151.24 144.64 136.19 M 101.08 192.4 C 118.56 175.13 131.76 158.45 150.28 135.79 M 101.08 192.4 C 113.27 179.27 124.36 164.95 150.28 135.79 M 94.25 206.34 C 114.94 185.36 136.45 162.09 155.27 136.15 M 94.25 206.34 C 109.85 188.94 124.9 171.2 155.27 136.15 M 89.4 218.02 C 111.38 193.84 135.99 167.92 160.91 135.76 M 89.4 218.02 C 108.51 197.83 124.47 177.47 160.91 135.76 M 94.39 218.38 C 113.4 196.8 131 175.5 165.9 136.12 M 94.39 218.38 C 113.61 194.78 133.34 172.39 165.9 136.12 M 100.03 217.99 C 115.82 199.14 130.16 181.83 171.54 135.72 M 100.03 217.99 C 116.2 198.13 132.86 178.18 171.54 135.72 M 105.02 218.35 C 120.81 196.14 141.49 179.7 176.53 136.08 M 105.02 218.35 C 118.99 201.97 133.34 185.04 176.53 136.08 M 110.66 217.95 C 127.56 197.92 145.89 179.24 182.17 135.69 M 110.66 217.95 C 125.43 200.74 140.1 183.71 182.17 135.69 M 115.65 218.31 C 144.35 189.09 169.34 155.5 187.16 136.05 M 115.65 218.31 C 141 189.86 163 164.03 187.16 136.05 M 120.63 218.67 C 145.09 192.46 167.85 163.82 188.86 140.18 M 120.63 218.67 C 137.53 199.41 154.05 178.85 188.86 140.18 M 126.28 218.28 C 144.18 199.66 160.97 180.78 190.57 144.32 M 126.28 218.28 C 151.63 188.43 176.77 160.55 190.57 144.32 M 131.26 218.64 C 143.54 203.38 158.83 186.95 192.93 147.7 M 131.26 218.64 C 145.29 201.99 158.87 185.9 192.93 147.7 M 136.91 218.24 C 158.68 193.5 183.58 166.03 194.64 151.83 M 136.91 218.24 C 150.5 200.79 165.29 185.74 194.64 151.83 M 141.89 218.6 C 160.25 195.36 181.64 174.41 196.35 155.96 M 141.89 218.6 C 156.79 201.33 172.69 184.56 196.35 155.96 M 147.54 218.21 C 166.07 196.88 184.31 175.97 198.71 159.34 M 147.54 218.21 C 158.97 206.01 169.85 194.3 198.71 159.34 M 152.52 218.57 C 169.59 199.25 184.55 182.18 200.42 163.48 M 152.52 218.57 C 167.12 199.95 183.54 183.52 200.42 163.48 M 158.17 218.18 C 167.75 204.98 182.35 190.03 202.12 167.61 M 158.17 218.18 C 169.65 204.5 182.68 189.52 202.12 167.61 M 163.15 218.54 C 174.96 204.93 185.28 191.52 204.49 170.99 M 163.15 218.54 C 178.64 199.93 195.11 181.93 204.49 170.99 M 168.8 218.14 C 177.22 209.13 189.32 195.53 206.19 175.12 M 168.8 218.14 C 181.3 203.48 195.05 187.62 206.19 175.12 M 173.78 218.5 C 186.86 207.16 193.87 192.53 209.21 177.75 M 173.78 218.5 C 181.4 209.6 190.79 200.25 209.21 177.75 M 179.43 218.11 C 186.28 210.39 189.63 205.21 201.73 192.45 M 179.43 218.11 C 188.24 209.67 195.59 199.9 201.73 192.45" fill="none" stroke="#d5e8d4" stroke-width="0.5" stroke-linejoin="round" stroke-linecap="round" stroke-miterlimit="10" pointer-events="all"/><path d="M 86.5 136 M 86.5 136 C 111.95 135.47 139.93 135.04 186.5 136 M 86.5 136 C 116.78 136.35 149.4 136.63 186.5 136 M 186.5 136 C 193.47 148.17 198.42 161.12 206.5 176 M 186.5 136 C 194.18 150.37 201.96 165.68 206.5 176 M 206.5 176 C 202.07 188.91 195.43 197.91 186.5 216 M 206.5 176 C 200.07 186.76 195.06 198.73 186.5 216 M 186.5 216 C 158.89 218.57 131.39 218.07 86.5 216 M 186.5 216 C 158.41 217.28 129.24 217.45 86.5 216 M 86.5 216 C 94.71 202.72 102.27 185.84 106.5 176 M 86.5 216 C 91.11 204.58 97 194.62 106.5 176 M 106.5 176 C 97.67 159.52 92.54 145.62 86.5 136 M 106.5 176 C 101.2 163 94.98 151.05 86.5 136" fill="none" stroke="#82b366" stroke-linejoin="round" stroke-linecap="round" stroke-miterlimit="10" pointer-events="all"/><path d="M 306.5 136 L 406.5 136 L 426.5 176 L 406.5 216 L 306.5 216 L 326.5 176 Z" fill="none" stroke="none" pointer-events="all"/><path d="M 306.5 136 C 306.5 136 306.5 136 306.5 136 M 306.5 136 C 306.5 136 306.5 136 306.5 136 M 308.21 140.13 C 309.3 139.41 309.45 137.81 311.49 136.36 M 308.21 140.13 C 308.95 139.17 310.19 137.81 311.49 136.36 M 310.57 143.51 C 312.59 141.66 312.81 139.55 317.13 135.97 M 310.57 143.51 C 313.5 140.77 315.1 137.72 317.13 135.97 M 312.28 147.65 C 313.94 145.31 315.29 142.86 322.12 136.33 M 312.28 147.65 C 315.05 143.89 318.85 140.59 322.12 136.33 M 313.98 151.78 C 317.93 146.93 322.19 143.17 327.76 135.93 M 313.98 151.78 C 316.7 149.15 320.31 144.99 327.76 135.93 M 316.35 155.16 C 319 148.2 325.8 146.85 332.75 136.29 M 316.35 155.16 C 321.14 149.3 325.9 144.63 332.75 136.29 M 318.05 159.29 C 326.25 152.06 330.38 144.56 338.39 135.9 M 318.05 159.29 C 324.17 151.74 331.64 142.65 338.39 135.9 M 319.76 163.43 C 326.97 158.48 330.16 149.47 343.38 136.26 M 319.76 163.43 C 328.34 153.67 335.44 144.38 343.38 136.26 M 322.12 166.81 C 330.65 156.09 336.81 150.32 349.02 135.86 M 322.12 166.81 C 329.92 158.03 335.67 150.17 349.02 135.86 M 323.83 170.94 C 328.46 165.13 335.94 157.42 354.01 136.22 M 323.83 170.94 C 336.94 157.6 348.85 142.32 354.01 136.22 M 325.54 175.07 C 335.29 164.09 348.82 148.76 359.65 135.83 M 325.54 175.07 C 339.4 158.98 351.3 143.98 359.65 135.83 M 328.55 177.7 C 337.79 168.88 343.42 160.4 364.64 136.19 M 328.55 177.7 C 340.51 164.8 352.24 150.94 364.64 136.19 M 321.08 192.4 C 337.77 171.56 357.29 152.76 370.28 135.79 M 321.08 192.4 C 334.87 175.07 350.63 156.87 370.28 135.79 M 314.25 206.34 C 325.68 190.29 340.48 176.2 375.27 136.15 M 314.25 206.34 C 331.9 187.19 348.96 166.54 375.27 136.15 M 309.4 218.02 C 332.1 188.93 359.48 161.13 380.91 135.76 M 309.4 218.02 C 331.1 193.08 354.72 166.44 380.91 135.76 M 314.39 218.38 C 340.74 189.27 365.8 156.91 385.9 136.12 M 314.39 218.38 C 341.76 184.88 370.82 152.71 385.9 136.12 M 320.03 217.99 C 347.02 189.68 370.03 161.21 391.54 135.72 M 320.03 217.99 C 334.45 201.65 350.27 184.26 391.54 135.72 M 325.02 218.35 C 343.87 201.37 360.63 181.69 396.53 136.08 M 325.02 218.35 C 346.06 194.98 366.58 169.74 396.53 136.08 M 330.66 217.95 C 348.6 196.18 368.37 173.29 402.17 135.69 M 330.66 217.95 C 358.07 187.27 383.82 155.08 402.17 135.69 M 335.65 218.31 C 354.04 192.09 374.82 170.49 407.16 136.05 M 335.65 218.31 C 362.54 188.41 387.51 159.06 407.16 136.05 M 340.63 218.67 C 362.65 195.98 383.05 170.85 408.86 140.18 M 340.63 218.67 C 362.04 195.49 380.84 173.17 408.86 140.18 M 346.28 218.28 C 359.47 200.75 372.37 185.65 410.57 144.32 M 346.28 218.28 C 365.31 196.84 384.32 173.73 410.57 144.32 M 351.26 218.64 C 371.23 197.55 389.24 178.35 412.93 147.7 M 351.26 218.64 C 374.66 191.63 397.7 165.88 412.93 147.7 M 356.91 218.24 C 367.2 203.68 379.81 188.28 414.64 151.83 M 356.91 218.24 C 376.86 196.72 396.04 173.38 414.64 151.83 M 361.89 218.6 C 383.18 195.22 402.32 172.92 416.35 155.96 M 361.89 218.6 C 383.6 194.69 402.92 170.33 416.35 155.96 M 367.54 218.21 C 385.28 200.15 400.48 181.63 418.71 159.34 M 367.54 218.21 C 380.81 204.16 393.95 189.1 418.71 159.34 M 372.52 218.57 C 385.81 201.78 398.6 187.42 420.42 163.48 M 372.52 218.57 C 391.79 196.82 410.34 175.31 420.42 163.48 M 378.17 218.18 C 388.96 202.06 402.55 189.55 422.12 167.61 M 378.17 218.18 C 393.6 200.66 408.01 185.03 422.12 167.61 M 383.15 218.54 C 396.12 200.51 409.96 186.93 424.49 170.99 M 383.15 218.54 C 392.14 207.7 401.75 197.34 424.49 170.99 M 388.8 218.14 C 400.6 207.25 409.88 194.1 426.19 175.12 M 388.8 218.14 C 396.8 207.84 406.75 198.85 426.19 175.12 M 393.78 218.5 C 401.2 209.1 408.69 201.04 429.21 177.75 M 393.78 218.5 C 401.54 208.32 408.67 198.92 429.21 177.75 M 399.43 218.11 C 408.77 208.96 415.8 198.83 421.73 192.45 M 399.43 218.11 C 406.23 211.72 410.51 204.69 421.73 192.45" fill="none" stroke="#d5e8d4" stroke-width="0.5" stroke-linejoin="round" stroke-linecap="round" stroke-miterlimit="10" pointer-events="all"/><path d="M 306.5 136 M 306.5 136 C 342.18 134.82 376.45 134.41 406.5 136 M 306.5 136 C 333.61 135.75 359.28 135.46 406.5 136 M 406.5 136 C 410.76 148.95 417.49 160.08 426.5 176 M 406.5 136 C 413.58 150.34 420.41 164.71 426.5 176 M 426.5 176 C 418.25 192.7 409.8 206.54 406.5 216 M 426.5 176 C 419.42 189.47 412.59 203.05 406.5 216 M 406.5 216 C 379.43 213.87 356.58 215.41 306.5 216 M 406.5 216 C 373.78 216.13 339.29 217.09 306.5 216 M 306.5 216 C 311.12 204.12 316.78 196.46 326.5 176 M 306.5 216 C 309.71 206.34 315.76 199.57 326.5 176 M 326.5 176 C 321.62 166.37 314.77 153.23 306.5 136 M 326.5 176 C 319.24 162.43 313.7 148.94 306.5 136" fill="none" stroke="#82b366" stroke-linejoin="round" stroke-linecap="round" stroke-miterlimit="10" pointer-events="all"/><path d="M 416.5 136 L 516.5 136 L 536.5 176 L 516.5 216 L 416.5 216 L 436.5 176 Z" fill="none" stroke="none" pointer-events="all"/><path d="M 416.5 136 C 416.5 136 416.5 136 416.5 136 M 416.5 136 C 416.5 136 416.5 136 416.5 136 M 418.21 140.13 C 419.35 138.84 420.33 137.77 421.49 136.36 M 418.21 140.13 C 419.17 139.19 420.05 138.36 421.49 136.36 M 420.57 143.51 C 423.2 140.99 425.47 138.42 427.13 135.97 M 420.57 143.51 C 421.98 142.03 423.05 140.63 427.13 135.97 M 422.28 147.65 C 427.29 143.69 430.43 138 432.12 136.33 M 422.28 147.65 C 424.95 144.36 428.39 141.49 432.12 136.33 M 423.98 151.78 C 426.84 147.53 432.96 140.33 437.76 135.93 M 423.98 151.78 C 428.95 147.16 431.99 142.34 437.76 135.93 M 426.35 155.16 C 432 148.72 437.28 140.37 442.75 136.29 M 426.35 155.16 C 429.84 149.93 435.01 146.29 442.75 136.29 M 428.05 159.29 C 433.62 155.14 436.61 149.25 448.39 135.9 M 428.05 159.29 C 435.18 152.11 441.24 144.59 448.39 135.9 M 429.76 163.43 C 436.66 155.51 441.89 149.75 453.38 136.26 M 429.76 163.43 C 437.66 154.97 443.77 147.63 453.38 136.26 M 432.12 166.81 C 441.73 155.78 450.32 143.12 459.02 135.86 M 432.12 166.81 C 441.63 155.08 452.08 143.57 459.02 135.86 M 433.83 170.94 C 444.01 158.31 455.59 148.86 464.01 136.22 M 433.83 170.94 C 441.7 163.85 447.51 156.06 464.01 136.22 M 435.54 175.07 C 447.38 162.5 456.23 149.19 469.65 135.83 M 435.54 175.07 C 449.19 159.78 463.23 143.79 469.65 135.83 M 438.55 177.7 C 452.67 161.73 462.87 148.2 474.64 136.19 M 438.55 177.7 C 450.55 164.11 460.67 152.64 474.64 136.19 M 431.08 192.4 C 441.14 179.31 449.14 169.72 480.28 135.79 M 431.08 192.4 C 449.61 169.88 468.04 149.81 480.28 135.79 M 424.25 206.34 C 440.03 186.4 456.32 167.46 485.27 136.15 M 424.25 206.34 C 443.94 184.22 463.02 162.66 485.27 136.15 M 419.4 218.02 C 442.83 189.44 468.98 159.77 490.91 135.76 M 419.4 218.02 C 445.7 186.32 472.98 157.4 490.91 135.76 M 424.39 218.38 C 445.41 194.19 463.64 171.23 495.9 136.12 M 424.39 218.38 C 445.6 192.87 467.69 169.36 495.9 136.12 M 430.03 217.99 C 449.93 192.67 471.3 169.51 501.54 135.72 M 430.03 217.99 C 457 185.28 484.29 154.01 501.54 135.72 M 435.02 218.35 C 452.93 201.18 469.78 182.26 506.53 136.08 M 435.02 218.35 C 463.13 187.99 489.82 156.44 506.53 136.08 M 440.66 217.95 C 459.64 193.02 484.85 169.92 512.17 135.69 M 440.66 217.95 C 466.41 189.69 490.95 160.78 512.17 135.69 M 445.65 218.31 C 459.38 200.51 475.94 186.91 517.16 136.05 M 445.65 218.31 C 474.09 186.96 502.01 154.08 517.16 136.05 M 450.63 218.67 C 470.21 194.14 488.25 172.53 518.86 140.18 M 450.63 218.67 C 472.98 192.93 496.05 166.84 518.86 140.18 M 456.28 218.28 C 477.62 191.06 503.5 164.93 520.57 144.32 M 456.28 218.28 C 470.47 201.97 483.34 187.63 520.57 144.32 M 461.26 218.64 C 483.5 192.95 504.24 166.99 522.93 147.7 M 461.26 218.64 C 482.27 194.22 502.45 171.01 522.93 147.7 M 466.91 218.24 C 478.58 200.58 494.46 187.97 524.64 151.83 M 466.91 218.24 C 480.34 202.78 494.36 186.44 524.64 151.83 M 471.89 218.6 C 490.87 195.09 511.74 171.44 526.35 155.96 M 471.89 218.6 C 488.78 200.57 504.62 181.15 526.35 155.96 M 477.54 218.21 C 490.48 203.41 506.64 183.3 528.71 159.34 M 477.54 218.21 C 492.64 199.29 510.06 182.88 528.71 159.34 M 482.52 218.57 C 493.12 203.35 507.74 191.71 530.42 163.48 M 482.52 218.57 C 495.79 204.7 508.88 189.13 530.42 163.48 M 488.17 218.18 C 501.18 202.26 517.75 184.19 532.12 167.61 M 488.17 218.18 C 504.54 198.82 522.33 178.53 532.12 167.61 M 493.15 218.54 C 503.01 209.59 508.12 197.35 534.49 170.99 M 493.15 218.54 C 503.91 203.97 516.93 191.74 534.49 170.99 M 498.8 218.14 C 509.97 205.37 524.44 188.67 536.19 175.12 M 498.8 218.14 C 509.77 205.61 521.4 192.88 536.19 175.12 M 503.78 218.5 C 516.62 206.9 527.69 193.24 539.21 177.75 M 503.78 218.5 C 512.5 209.05 519.36 199.59 539.21 177.75 M 509.43 218.11 C 516.8 208.66 527.05 198.72 531.73 192.45 M 509.43 218.11 C 518.17 208.64 525.84 199.21 531.73 192.45" fill="none" stroke="#d5e8d4" stroke-width="0.5" stroke-linejoin="round" stroke-linecap="round" stroke-miterlimit="10" pointer-events="all"/><path d="M 416.5 136 M 416.5 136 C 442.41 136.17 466.96 135.78 516.5 136 M 416.5 136 C 438.45 135.16 459.16 136.29 516.5 136 M 516.5 136 C 522.85 145.34 527.37 158.63 536.5 176 M 516.5 136 C 524.97 150.3 530.87 165.75 536.5 176 M 536.5 176 C 532.42 184.09 526.16 194.77 516.5 216 M 536.5 176 C 531.57 184.18 528.92 191.38 516.5 216 M 516.5 216 C 493.97 215.17 467.77 214.76 416.5 216 M 516.5 216 C 477.16 216.97 439.35 216.73 416.5 216 M 416.5 216 C 421.54 201.12 429.29 190.68 436.5 176 M 416.5 216 C 422.31 202.5 430.52 188.92 436.5 176 M 436.5 176 C 427.57 160.83 423 144.44 416.5 136 M 436.5 176 C 430.08 161.85 421.22 146.83 416.5 136" fill="none" stroke="#82b366" stroke-linejoin="round" stroke-linecap="round" stroke-miterlimit="10" pointer-events="all"/><path d="M 450.36 118.37 C 451.27 114.99 453.54 112.17 456.62 110.6 C 459.69 109.04 463.28 108.88 466.48 110.17 C 471.13 112.47 474.74 116.51 476.55 121.45 C 484.86 97.41 497.49 75.16 513.81 55.83 C 518.44 51.55 524.91 50 530.93 51.73 C 532.47 51.98 533.77 53.01 534.39 54.47 C 535 55.93 534.84 57.6 533.95 58.91 C 511.77 84.4 495.28 114.48 485.61 147.08 C 479.91 150 473.18 150 467.48 147.08 C 463.18 137.34 457.4 128.35 450.36 120.42 C 450 119.79 450 119.01 450.36 118.37 Z" fill="none" stroke="none" pointer-events="all"/><path d="M 452.48 114.03 C 452.48 114.03 452.48 114.03 452.48 114.03 M 452.48 114.03 C 452.48 114.03 452.48 114.03 452.48 114.03 M 451.56 121.19 C 452.57 120.17 455.03 118.24 458.78 112.89 M 451.56 121.19 C 454.12 117.97 457.14 115.1 458.78 112.89 M 453.92 124.57 C 457.89 119.13 462.77 115.46 465.73 110.98 M 453.92 124.57 C 457.41 120.34 462.04 116.36 465.73 110.98 M 456.29 127.94 C 462.97 122.08 465.46 115.33 469.41 112.85 M 456.29 127.94 C 462.04 121.95 466.32 116.45 469.41 112.85 M 516.64 58.51 C 519.18 54.98 521.3 53.12 522.55 51.72 M 516.64 58.51 C 518.98 56.26 521.57 53.06 522.55 51.72 M 458.65 131.32 C 463.7 126.13 467.85 122.47 473.08 114.72 M 458.65 131.32 C 462.56 126.43 466.72 122.39 473.08 114.72 M 495.39 89.06 C 508.16 74.71 518.2 59.03 527.53 52.08 M 495.39 89.06 C 504.59 78.9 513.89 69.49 527.53 52.08 M 461.67 133.95 C 463.38 131.65 465.49 128.39 474.79 118.85 M 461.67 133.95 C 465.39 129.6 468.65 126.43 474.79 118.85 M 489.22 102.25 C 496.84 93.44 507.18 80.45 531.87 53.19 M 489.22 102.25 C 502.3 84.88 518.05 69.72 531.87 53.19 M 463.37 138.08 C 481.89 114.73 502.71 93.96 535.54 55.06 M 463.37 138.08 C 485.63 112.43 506.59 87.4 535.54 55.06 M 465.74 141.46 C 486.16 119.95 502.81 97.07 519.53 79.57 M 465.74 141.46 C 482.63 122.63 497.79 102.91 519.53 79.57 M 467.44 145.59 C 483.99 129.15 499.79 111.32 508.78 98.05 M 467.44 145.59 C 480.62 129.45 494.36 114.29 508.78 98.05 M 469.81 148.97 C 479.85 134.64 494.75 120.23 501.3 112.75 M 469.81 148.97 C 479.84 137.8 490.14 126.91 501.3 112.75 M 474.14 150.09 C 481.58 143.2 486.26 136.78 497.1 123.67 M 474.14 150.09 C 478.15 143.78 484.42 139.41 497.1 123.67 M 478.47 151.2 C 483.32 144.8 490.29 140.41 492.25 135.35 M 478.47 151.2 C 480.91 148.22 484.2 144 492.25 135.35" fill="none" stroke="#00ff00" stroke-width="0.5" stroke-linejoin="round" stroke-linecap="round" stroke-miterlimit="10" pointer-events="all"/><path d="M 450.36 118.37 M 450.36 118.37 C 451.13 115.24 453.45 111.75 456.62 110.6 M 450.36 118.37 C 452.33 112.94 455.66 111.41 456.62 110.6 M 456.62 110.6 C 460.85 108.1 463.17 108.36 466.48 110.17 M 456.62 110.6 C 460.36 110.94 461.33 107.29 466.48 110.17 M 466.48 110.17 C 470.79 112.85 476.55 115.41 476.55 121.45 M 466.48 110.17 C 470.45 113.76 474.35 118.75 476.55 121.45 M 476.55 121.45 C 486.16 98.67 499.08 76.06 513.81 55.83 M 476.55 121.45 C 484.09 99.34 499.62 75.6 513.81 55.83 M 513.81 55.83 C 518.44 50.31 524.09 50.53 530.93 51.73 M 513.81 55.83 C 516.48 52 525.85 51.13 530.93 51.73 M 530.93 51.73 C 534.18 53.93 532.28 53.88 534.39 54.47 M 530.93 51.73 C 530.45 50.05 534.34 51.66 534.39 54.47 M 534.39 54.47 C 535.37 55.82 534.36 58.58 533.95 58.91 M 534.39 54.47 C 536.26 56.54 535.78 58.7 533.95 58.91 M 533.95 58.91 C 513.68 86.04 493.42 114.39 485.61 147.08 M 533.95 58.91 C 512.7 84.5 497.27 112.7 485.61 147.08 M 485.61 147.08 C 480.19 150.26 471.51 150.73 467.48 147.08 M 485.61 147.08 C 479.11 147.76 472.23 148.13 467.48 147.08 M 467.48 147.08 C 464.58 138.17 457.4 126.86 450.36 120.42 M 467.48 147.08 C 461.49 136.74 458.63 128.09 450.36 120.42 M 450.36 120.42 C 449.21 120.18 449.11 119.31 450.36 118.37 M 450.36 120.42 C 450.49 121.44 449.27 120.99 450.36 118.37 M 450.36 118.37 C 450.36 118.37 450.36 118.37 450.36 118.37 M 450.36 118.37 C 450.36 118.37 450.36 118.37 450.36 118.37" fill="none" stroke="#00cc00" stroke-linejoin="round" stroke-linecap="round" stroke-miterlimit="10" pointer-events="all"/><path d="M 360 240 L 411 240 L 430 259 L 430 340 L 360 340 L 360 240 Z" fill="none" stroke="none" pointer-events="all"/><path d="M 411 240 L 411 259 L 430 259 Z" fill="none" stroke="none" pointer-events="all"/><path d="M 411 240 L 411 259 L 430 259" fill="none" stroke="none" pointer-events="all"/><path d="M 359.42 241.23 L 409.43 238.76 L 431.64 257.98 L 429.34 341.01 L 360.87 339.2 L 358.08 239.63" fill="rgb(255, 255, 255)" stroke="none" pointer-events="all"/><path d="M 360 240 M 360 240 C 378.61 241.27 396.51 240.4 411 240 M 360 240 C 376.21 239.14 392.54 239.77 411 240 M 411 240 C 416.65 244 422.31 251.18 430 259 M 411 240 C 417.97 247.17 423.95 253.79 430 259 M 430 259 C 430.59 289.21 429.52 325.13 430 340 M 430 259 C 429.55 279.78 429.69 300.27 430 340 M 430 340 C 407.9 337.44 380.56 340.2 360 340 M 430 340 C 402.67 339.19 376.57 339.41 360 340 M 360 340 C 360.11 314.96 359.75 285.48 360 240 M 360 340 C 359.92 310.45 358.85 281.97 360 240 M 360 240 C 360 240 360 240 360 240 M 360 240 C 360 240 360 240 360 240" fill="none" stroke="rgb(0, 0, 0)" stroke-linejoin="round" stroke-linecap="round" stroke-miterlimit="10" pointer-events="all"/><path d="M 410.7 240.35 C 410.7 240.35 410.7 240.35 410.7 240.35 M 410.7 240.35 C 410.7 240.35 410.7 240.35 410.7 240.35 M 411.09 245.99 C 412.28 245.1 412.82 243.78 413.72 242.97 M 411.09 245.99 C 412.13 244.96 412.82 243.79 413.72 242.97 M 410.83 252.39 C 413.85 250.34 415.92 246.83 416.74 245.59 M 410.83 252.39 C 412.77 250.4 415.25 247.6 416.74 245.59 M 411.23 258.03 C 413.28 256.73 415.1 252.48 419.76 248.22 M 411.23 258.03 C 413.25 255.92 415.59 253.93 419.76 248.22 M 413.59 261.41 C 414.27 259.99 418.12 257.52 422.12 251.6 M 413.59 261.41 C 415.44 259.46 416.93 257.18 422.12 251.6 M 419.23 261.01 C 420.55 258.83 422.31 258.23 425.14 254.22 M 419.23 261.01 C 420.51 259.41 422.22 257.67 425.14 254.22 M 424.22 261.37 C 425.07 260.46 426.33 258.67 428.16 256.85 M 424.22 261.37 C 425.38 260.04 427.23 258.13 428.16 256.85" fill="none" stroke="#000000" stroke-opacity="0.05" stroke-width="0.5" stroke-linejoin="round" stroke-linecap="round" stroke-miterlimit="10" pointer-events="all"/><path d="M 411 240 M 411 240 C 409.94 246.7 410.15 249.66 411 259 M 411 240 C 410.17 246.49 411.47 253.62 411 259 M 411 259 C 418.82 259.36 423.48 257.7 430 259 M 411 259 C 418.23 259.12 423.74 258.46 430 259" fill="none" stroke="rgb(0, 0, 0)" stroke-linejoin="round" stroke-linecap="round" stroke-miterlimit="10" pointer-events="all"/><path d="M 543.5 222.6 M 543.5 222.6 C 542.26 202.42 545.77 179.26 543.5 142.6 M 543.5 222.6 C 542.54 204.18 542.21 184.46 543.5 142.6" fill="none" stroke="rgb(0, 0, 0)" stroke-linejoin="round" stroke-linecap="round" stroke-miterlimit="10" pointer-events="none"/><path d="M 543.5 222.6 M 543.5 222.6 C 579.76 224.06 613.3 222.76 673.5 222.6 M 543.5 222.6 C 582.9 222.68 624.52 221.27 673.5 222.6" fill="none" stroke="rgb(0, 0, 0)" stroke-linejoin="round" stroke-linecap="round" stroke-miterlimit="10" pointer-events="none"/><path d="M 533.5 152.6 M 533.5 152.6 C 547.13 138.26 561.83 123.62 583.5 102.6 M 533.5 152.6 C 553.22 132.96 571.17 115.64 583.5 102.6" fill="none" stroke="rgb(0, 0, 0)" stroke-linejoin="round" stroke-linecap="round" stroke-miterlimit="10" pointer-events="none"/><path d="M 582.5 102.6 M 582.5 102.6 C 624.52 112.4 667.84 126.33 742.5 142.6 M 582.5 102.6 C 622.4 112.38 663.53 123.59 742.5 142.6" fill="none" stroke="rgb(0, 0, 0)" stroke-linejoin="round" stroke-linecap="round" stroke-miterlimit="10" pointer-events="none"/><path d="M 552.11 159.87 L 582.23 157.54 L 582.34 219.07 L 555.47 219.14" fill="rgb(255, 255, 255)" stroke="none" pointer-events="none"/><path d="M 553.5 158.6 C 566.39 158.85 575.97 159.27 583.5 158.6 M 553.5 158.6 C 564.18 158.61 575.9 158.01 583.5 158.6 M 583.5 158.6 C 584.02 171.43 583.88 187.06 583.5 218.6 M 583.5 158.6 C 583.74 173.21 583.9 188.87 583.5 218.6 M 583.5 218.6 C 574.49 219.49 565.26 219.37 553.5 218.6 M 583.5 218.6 C 575.05 217.92 567.55 218.59 553.5 218.6 M 553.5 218.6 C 554.27 194.84 554.31 174.8 553.5 158.6 M 553.5 218.6 C 552.97 200.32 552.62 180.62 553.5 158.6" fill="none" stroke="rgb(0, 0, 0)" stroke-linejoin="round" stroke-linecap="round" stroke-miterlimit="10" pointer-events="none"/><path d="M 591.66 160.33 L 618.95 156.96 L 618.49 220.12 L 591.15 219.11" fill="rgb(255, 255, 255)" stroke="none" pointer-events="none"/><path d="M 590 158.6 C 600.61 160.65 611.83 157.47 620 158.6 M 590 158.6 C 599.39 159.28 608.58 159.11 620 158.6 M 620 158.6 C 620.09 175.99 621.67 193.17 620 218.6 M 620 158.6 C 620.91 181.78 620.87 206.04 620 218.6 M 620 218.6 C 612.08 217.86 605.12 216.74 590 218.6 M 620 218.6 C 609.58 218.32 597.67 218.76 590 218.6 M 590 218.6 C 588.59 201.92 589.7 188.6 590 158.6 M 590 218.6 C 588.85 205.97 588.83 191.77 590 158.6" fill="none" stroke="rgb(0, 0, 0)" stroke-linejoin="round" stroke-linecap="round" stroke-miterlimit="10" pointer-events="none"/><path d="M 643.5 142.6 M 643.5 142.6 C 645.57 175.18 643.76 207.84 643.5 222.6 M 643.5 142.6 C 643.08 173.94 644.54 203.54 643.5 222.6" fill="none" stroke="rgb(0, 0, 0)" stroke-linejoin="round" stroke-linecap="round" stroke-miterlimit="10" pointer-events="none"/><path d="M 653.5 142.6 M 653.5 142.6 C 653.56 173.11 653.39 206.17 653.5 222.6 M 653.5 142.6 C 653.68 167.88 654.3 195.44 653.5 222.6" fill="none" stroke="rgb(0, 0, 0)" stroke-linejoin="round" stroke-linecap="round" stroke-miterlimit="10" pointer-events="none"/><path d="M 743.5 142.6 M 743.5 142.6 C 662.75 145.25 586.03 143.1 543.5 142.6 M 743.5 142.6 C 664.73 142.24 583.54 142.87 543.5 142.6" fill="none" stroke="rgb(0, 0, 0)" stroke-linejoin="round" stroke-linecap="round" stroke-miterlimit="10" pointer-events="none"/><path d="M 548.69 118.17 L 550.94 137.44 C 555.32 133.43 558.74 129.89 561.33 125.66 C 563.58 121.93 564.53 118.19 564.46 114.5 C 564.02 108.9 562.18 106.83 557.79 104.84 C 550.81 101.85 543.9 104.52 539.88 106.57 Z M 523.98 120.29 C 521.14 124.31 519.05 128.77 517.83 133.73 C 516.19 142.12 518.58 146.49 521.12 149.14 C 525.41 152.89 530.62 153.88 534.99 153.8 C 543.49 153.13 550.86 147.87 556.01 142.94 C 562.73 136.39 568.39 128.28 570.07 119.03 C 570.78 113.88 571.18 108.22 566.99 102.58 C 563.46 98.67 557.28 96.32 550.65 96.99 C 546.09 97.48 541.33 99.2 536.41 101.8 L 539.2 105.53 C 543.72 103.13 548.37 101.62 552.23 101.44 C 557.04 101.35 562.06 102.84 564.49 106.77 C 566.85 110.43 567.42 116.57 564.15 123.17 C 561.61 128.74 556.54 134.29 551.13 138.28 L 551.18 139.25 L 531.74 130.81 Z M 510 133.27 C 511.47 126.46 515.14 120.12 519.69 114.49 L 512 104.54 C 511.33 103.53 511.09 100.58 512.56 98.1 C 515.36 93.8 517.85 91.72 524.14 90.41 C 526.06 90 528.3 90.92 528.75 91.55 L 535.56 100.77 C 539.44 98.52 544 95.41 552.14 94.41 C 558.9 93.64 564.62 95.01 568.78 99.6 C 574 104.67 573.8 112.23 572.56 117.98 C 570.68 126.92 565.82 135.12 557.41 143.83 C 550.31 150.04 540.69 158.6 526.35 155.52 C 521.64 154.3 515.32 149.93 515.46 140.64 C 515.46 133.66 517.33 125.81 523.3 119.45 L 520.13 115.19 C 517.22 118.52 512.04 125.88 510.77 133.25 Z" fill="#ffffff" stroke="none" pointer-events="none"/><path d="M 532.56 129.67 L 513.04 103.63 C 512.55 103.1 512.58 100.95 513.2 99.63 C 513.68 98.24 515.47 96.05 518.06 93.98 C 520.18 92.66 526.05 90.59 527.77 92.44 L 547.41 118.47 L 549.75 137.22 Z" fill="#41577d" stroke="none" pointer-events="none"/><path d="M 544.57 132.88 L 534.58 128.4 C 536.55 125.58 536.99 122.97 536.8 120.44 C 540.2 121.37 542.88 120.6 545.26 119.13 L 546.94 130.94 C 546.12 131.05 545.08 131.86 544.57 132.88 Z" fill="#fdd4ae" stroke="none" pointer-events="none"/><path d="M 533.6 127.66 L 520.42 109.94 C 521.26 107.94 522.49 105.95 524.43 104.78 L 534.68 118.6 C 536.56 121.97 535.43 125.57 533.6 127.66 Z" fill="#8eb3d7" stroke="none" pointer-events="none"/><path d="M 531.68 101.02 L 544.49 118.17 C 543.01 119.75 537.58 120.43 535.64 118.32 L 525.04 104.22 C 526.59 102.62 529.07 101.47 531.68 101.02 Z" fill="#bddaf1" stroke="none" pointer-events="none"/><path d="M 519.08 108.23 L 516.62 105.03 C 517.72 102.19 519.31 100.14 521.35 98.83 C 524.33 96.87 526.09 96.34 527.99 95.89 L 530.51 99.38 C 528.8 99.84 526.38 100.53 524.09 102.13 C 521.49 104.12 519.92 106.44 519.08 108.23 Z" fill="#deddde" stroke="none" pointer-events="none"/><path d="M 524.6 101.77 L 521.84 98.5 C 523.17 97.71 524.51 96.92 526.25 96.34 L 528.69 99.89 C 527.29 100.32 525.94 101 524.6 101.77 Z" fill="#ffffff" stroke="none" pointer-events="none"/><path d="M 515.18 103.56 C 514.35 100.52 516.62 97.15 519.24 95.57 C 522.35 93.83 524.59 93.35 527.03 94.36 C 525.65 94.42 523.27 94.82 519.85 97.3 C 517.44 98.98 515.38 102.09 515.18 103.56 Z" fill="#fac5c5" stroke="none" pointer-events="none"/><path d="M 307.51 260.38 C 307.51 260.38 307.51 260.38 307.51 260.38 M 307.51 260.38 C 307.51 260.38 307.51 260.38 307.51 260.38 M 302.66 272.06 C 305.95 266.08 311.34 258.87 321.69 250.18 M 302.66 272.06 C 310.34 263.78 316.59 256.19 321.69 250.18 M 303.05 277.71 C 310.49 269 317.51 258.25 329.95 246.76 M 303.05 277.71 C 311.19 266.91 320.7 255.23 329.95 246.76 M 302.79 284.1 C 313.89 271.48 322.65 259.94 336.91 244.86 M 302.79 284.1 C 313.7 270.74 324.39 257.91 336.91 244.86 M 347.4 232.78 C 347.4 232.78 347.4 232.78 347.4 232.78 M 347.4 232.78 C 347.4 232.78 347.4 232.78 347.4 232.78 M 303.19 289.75 C 318.15 271.93 336.32 251.97 350.42 235.41 M 303.19 289.75 C 313.49 276.53 325.9 264.51 350.42 235.41 M 302.93 296.14 C 316.23 281.77 328.35 268.01 353.44 238.03 M 302.93 296.14 C 315.64 280.46 330.24 265.2 353.44 238.03 M 304.63 300.28 C 308.05 293.63 313.71 291.9 324.97 276.88 M 304.63 300.28 C 309.24 294.92 313.52 289.38 324.97 276.88 M 333.5 267.07 C 337.29 259.42 345.76 252.48 356.46 240.66 M 333.5 267.07 C 338.82 260.19 343.67 254.71 356.46 240.66 M 306.34 304.41 C 310.09 300.15 315.14 296.49 324.05 284.03 M 306.34 304.41 C 312.53 296.98 318.46 290.01 324.05 284.03 M 340.45 265.17 C 346.67 255.71 354.17 249.2 359.48 243.28 M 340.45 265.17 C 346.34 257.5 352.8 251.26 359.48 243.28 M 308.05 308.55 C 314.32 302.57 318.82 297.93 323.79 290.43 M 308.05 308.55 C 313.12 303.16 317.17 297.7 323.79 290.43 M 346.75 264.02 C 350.21 258.21 352.95 257.77 362.5 245.9 M 346.75 264.02 C 353.2 256.79 358.78 250.52 362.5 245.9 M 309.75 312.68 C 316.06 307.12 321.04 301.81 325.5 294.57 M 309.75 312.68 C 312.81 308.08 318.02 304.34 325.5 294.57 M 346.49 270.42 C 349.59 267.62 356.38 260.75 365.52 248.53 M 346.49 270.42 C 352.18 263 359.15 256.78 365.52 248.53 M 312.77 315.3 C 319.14 306.97 323.52 302.82 327.21 298.7 M 312.77 315.3 C 317.85 308.58 323.11 302.66 327.21 298.7 M 347.54 275.3 C 353.51 266.14 362.83 258.73 369.19 250.4 M 347.54 275.3 C 355.39 266.42 361.57 258.6 369.19 250.4 M 315.79 317.93 C 319.31 313.23 321.96 308.35 330.22 301.32 M 315.79 317.93 C 319.49 314.94 320.99 310.71 330.22 301.32 M 318.81 320.55 C 323.58 317.04 326.83 311.2 333.24 303.95 M 318.81 320.55 C 321.84 315.59 326.52 312.14 333.24 303.95 M 321.17 323.93 C 326.54 319.68 329.49 311.95 336.26 306.57 M 321.17 323.93 C 323.95 320.51 329.03 315.78 336.26 306.57 M 324.85 325.8 C 329.01 322.88 333.63 318.83 340.59 307.69 M 324.85 325.8 C 330.17 320.03 334.49 313.81 340.59 307.69 M 328.52 327.67 C 332.95 323.52 339.16 318.22 344.92 308.8 M 328.52 327.67 C 332.17 323.18 337.6 316.94 344.92 308.8 M 332.85 328.78 C 339.1 324.62 341.84 317.49 350.57 308.41 M 332.85 328.78 C 337.06 324.63 340.55 319.19 350.57 308.41 M 337.84 329.14 C 344.38 322.52 347.39 317.73 355.55 308.77 M 337.84 329.14 C 340.52 324.87 345.08 320.41 355.55 308.77 M 342.17 330.26 C 348.47 325.85 352.66 320.03 361.2 308.37 M 342.17 330.26 C 346.59 325.18 350.57 322.07 361.2 308.37 M 346.5 331.37 C 351.87 326.51 355.45 322.49 366.18 308.73 M 346.5 331.37 C 351.72 324.16 358 318.44 366.18 308.73 M 351.49 331.73 C 358.42 323.86 363.03 315.68 371.17 309.09 M 351.49 331.73 C 358.21 325.47 364.13 317.89 371.17 309.09 M 357.13 331.34 C 362.16 328.48 364.55 322.09 370.91 315.49 M 357.13 331.34 C 361.2 326.19 365.94 321.1 370.91 315.49 M 362.12 331.7 C 363.78 328.13 366.98 323.71 371.3 321.13 M 362.12 331.7 C 365.36 329.38 367.17 325.96 371.3 321.13 M 367.76 331.31 C 368.64 329.99 370.33 329.17 371.04 327.53 M 367.76 331.31 C 368.88 330.08 370.3 328.84 371.04 327.53" fill="none" stroke="#666666" stroke-width="0.5" stroke-linejoin="round" stroke-linecap="round" stroke-miterlimit="10" pointer-events="none"/><path d="M 344.75 230 M 344.75 230 C 352.22 236.23 355.7 238.62 369.75 251.5 M 344.75 230 C 353.54 237.73 363.11 246.21 369.75 251.5 M 369.75 251.5 C 364.28 258.98 358.03 262.86 344.75 273 M 369.75 251.5 C 362.06 258.38 356.63 263.73 344.75 273 M 344.75 273 C 343.9 267.98 345.11 264.11 344.75 262.5 M 344.75 273 C 345 270.58 344.56 267.27 344.75 262.5 M 344.75 262.5 C 330.53 262.41 320.15 271.69 322 285.25 M 344.75 262.5 C 330.38 263.68 321.86 270.44 322 285.25 M 322 285.25 C 323.97 298.88 331.14 309.05 344.75 308 M 322 285.25 C 324.26 297.51 331.14 306.52 344.75 308 M 344.75 308 C 352.37 307.33 364.77 306.54 370 308 M 344.75 308 C 354.2 307.44 364.53 309.07 370 308 M 370 308 C 370.49 312.46 368.66 319.52 370 330 M 370 308 C 370.27 312.18 369.83 317.06 370 330 M 370 330 C 360.56 329.49 351.96 329.88 344.75 330 M 370 330 C 364.18 329 358.26 330.51 344.75 330 M 344.75 330 C 321.9 331.64 298.14 308.42 300 285.25 M 344.75 330 C 321.74 331.67 301.89 311.62 300 285.25 M 300 285.25 C 300.99 259.95 320.49 241.95 344.75 240.5 M 300 285.25 C 299.64 260.14 318.99 239.49 344.75 240.5 M 344.75 240.5 C 344.11 237.81 344.92 234.28 344.75 230 M 344.75 240.5 C 344.44 236.87 344.31 232.01 344.75 230" fill="none" stroke="rgb(0, 0, 0)" stroke-linejoin="round" stroke-linecap="round" stroke-miterlimit="10" pointer-events="none"/><path d="M 428.51 270.38 C 428.51 270.38 428.51 270.38 428.51 270.38 M 428.51 270.38 C 428.51 270.38 428.51 270.38 428.51 270.38 M 423.66 282.06 C 431.41 273.59 436.33 268.27 442.69 260.18 M 423.66 282.06 C 430.06 273.98 436.74 266.72 442.69 260.18 M 424.05 287.71 C 429.88 281.27 437.84 273.21 450.95 256.76 M 424.05 287.71 C 434.75 275.73 444.38 263.67 450.95 256.76 M 423.79 294.1 C 431.64 283.73 442.91 272.33 457.91 254.86 M 423.79 294.1 C 433.32 282.51 442.52 271.42 457.91 254.86 M 468.4 242.78 C 468.4 242.78 468.4 242.78 468.4 242.78 M 468.4 242.78 C 468.4 242.78 468.4 242.78 468.4 242.78 M 424.19 299.75 C 435.49 286.2 445.34 275.05 471.42 245.41 M 424.19 299.75 C 434.21 288.34 443.91 278.64 471.42 245.41 M 423.93 306.14 C 440.84 287.2 458.09 267.84 474.44 248.03 M 423.93 306.14 C 436.13 290.72 449.04 277.36 474.44 248.03 M 425.63 310.28 C 428.8 304.67 432.49 302.19 445.97 286.88 M 425.63 310.28 C 429.14 306.1 434.52 300.4 445.97 286.88 M 454.5 277.07 C 463.12 269.41 469.8 259.82 477.46 250.66 M 454.5 277.07 C 463.09 268.22 470.2 257.59 477.46 250.66 M 427.34 314.41 C 435.01 309.16 438.53 301.62 445.05 294.03 M 427.34 314.41 C 434.07 306.08 439.63 300.02 445.05 294.03 M 461.45 275.17 C 469.76 267.92 476.67 259.33 480.48 253.28 M 461.45 275.17 C 466.46 268.37 473.01 261.23 480.48 253.28 M 429.05 318.55 C 434.05 312.45 436.79 310.04 444.79 300.43 M 429.05 318.55 C 434.16 312.71 438.75 307.48 444.79 300.43 M 467.75 274.02 C 473.2 270.39 476.8 265.5 483.5 255.9 M 467.75 274.02 C 472.51 270.28 475.21 264.51 483.5 255.9 M 430.75 322.68 C 434.31 320.31 438.3 313.59 446.5 304.57 M 430.75 322.68 C 434.35 317.93 440.06 313.03 446.5 304.57 M 467.49 280.42 C 470.48 274.86 474.81 267.54 486.52 258.53 M 467.49 280.42 C 474.77 272.05 482.14 263.29 486.52 258.53 M 433.77 325.3 C 439.5 319.89 442.51 314.87 448.21 308.7 M 433.77 325.3 C 437.34 320.09 442.77 314.93 448.21 308.7 M 468.54 285.3 C 474.93 279.9 482.07 269.82 490.19 260.4 M 468.54 285.3 C 475.83 277.55 482.34 268.95 490.19 260.4 M 436.79 327.93 C 439.74 322.81 442.81 318.3 451.22 311.32 M 436.79 327.93 C 442.15 323.58 444.86 318.76 451.22 311.32 M 439.81 330.55 C 443.85 326.65 446.6 318.84 454.24 313.95 M 439.81 330.55 C 443.02 327.04 446.29 322.8 454.24 313.95 M 442.17 333.93 C 446.82 331.34 450.57 325.82 457.26 316.57 M 442.17 333.93 C 445.57 328.32 449.88 324.06 457.26 316.57 M 445.85 335.8 C 449.12 330.75 452.62 328.8 461.59 317.69 M 445.85 335.8 C 452.3 329.33 456.68 323.9 461.59 317.69 M 449.52 337.67 C 451.52 331.71 456.39 331.27 465.92 318.8 M 449.52 337.67 C 455.49 329.79 462.41 323.55 465.92 318.8 M 453.85 338.78 C 459.78 333.33 465.98 327.17 471.57 318.41 M 453.85 338.78 C 461.66 331.33 467.86 322.01 471.57 318.41 M 458.84 339.14 C 465.76 330.52 471.33 325.34 476.55 318.77 M 458.84 339.14 C 463.14 332.2 468.4 327.67 476.55 318.77 M 463.17 340.26 C 467.41 332.36 472.75 329.87 482.2 318.37 M 463.17 340.26 C 469.39 332.88 474.85 326.7 482.2 318.37 M 467.5 341.37 C 473.26 333.63 482.95 326.1 487.18 318.73 M 467.5 341.37 C 473.04 333.97 480.04 326.68 487.18 318.73 M 472.49 341.73 C 477.35 334.84 484.72 328.3 492.17 319.09 M 472.49 341.73 C 479.55 332.64 487.54 324.35 492.17 319.09 M 478.13 341.34 C 483.51 336.42 487.64 329.91 491.91 325.49 M 478.13 341.34 C 483.91 336.19 488.4 330.32 491.91 325.49 M 483.12 341.7 C 487.36 336.51 489.01 333.37 492.3 331.13 M 483.12 341.7 C 486.58 337.97 489.78 334.37 492.3 331.13 M 488.76 341.31 C 490.24 339.86 490.97 338.45 492.04 337.53 M 488.76 341.31 C 489.51 340.23 490.2 339.37 492.04 337.53" fill="none" stroke="#666666" stroke-width="0.5" stroke-linejoin="round" stroke-linecap="round" stroke-miterlimit="10" transform="rotate(-180,456,290)" pointer-events="none"/><path d="M 465.75 240 M 465.75 240 C 474.04 246.87 483.95 254.56 490.75 261.5 M 465.75 240 C 474.96 248.79 484.22 255.53 490.75 261.5 M 490.75 261.5 C 484.86 267.51 479.04 270.36 465.75 283 M 490.75 261.5 C 482.43 270.52 471.48 278.36 465.75 283 M 465.75 283 C 465.19 279.46 466.69 276.69 465.75 272.5 M 465.75 283 C 465.72 281.04 466.25 277.93 465.75 272.5 M 465.75 272.5 C 454.92 273.42 442.23 284.19 443 295.25 M 465.75 272.5 C 453.36 274.71 444.15 280.47 443 295.25 M 443 295.25 C 441.28 308.61 454.75 318.82 465.75 318 M 443 295.25 C 441.44 309.6 453.95 318.03 465.75 318 M 465.75 318 C 471.85 319.44 477.37 318.7 491 318 M 465.75 318 C 474.33 317.23 483.36 317.87 491 318 M 491 318 C 489.7 326.07 491.01 328.7 491 340 M 491 318 C 491.82 326 491.8 334.42 491 340 M 491 340 C 482.61 340.78 476.01 340.05 465.75 340 M 491 340 C 480.37 339.38 471.78 340.78 465.75 340 M 465.75 340 C 440.85 339.47 421.65 320.47 421 295.25 M 465.75 340 C 441.72 337.89 420.88 322.01 421 295.25 M 421 295.25 C 420.39 271.59 442.69 249.37 465.75 250.5 M 421 295.25 C 421.08 270.84 441.05 251.88 465.75 250.5 M 465.75 250.5 C 466.6 248.29 465.72 244.31 465.75 240 M 465.75 250.5 C 465.44 246.6 466 242.52 465.75 240" fill="none" stroke="rgb(0, 0, 0)" stroke-linejoin="round" stroke-linecap="round" stroke-miterlimit="10" transform="rotate(-180,456,290)" pointer-events="none"/></g></svg>