<?xml version="1.0" encoding="UTF-8"?>
<!DOCTYPE svg PUBLIC "-//W3C//DTD SVG 1.1//EN" "http://www.w3.org/Graphics/SVG/1.1/DTD/svg11.dtd">
<svg xmlns="http://www.w3.org/2000/svg" xmlns:xlink="http://www.w3.org/1999/xlink" version="1.1" width="769px" height="433px" viewBox="-0.5 -0.5 769 433" style="background-color: rgb(255, 255, 255);"><defs/><g><rect x="0" y="0" width="768" height="432" fill="#f5f5f5" stroke="none" pointer-events="all"/><path d="M 196.5 136 L 296.5 136 L 316.5 176 L 296.5 216 L 196.5 216 L 216.5 176 Z" fill="none" stroke="none" pointer-events="all"/><path d="M 196.5 136 C 196.5 136 196.5 136 196.5 136 M 196.5 136 C 196.5 136 196.5 136 196.5 136 M 198.21 140.13 C 199.94 138.86 201.08 137.44 201.49 136.36 M 198.21 140.13 C 199.51 139.13 200.47 137.69 201.49 136.36 M 200.57 143.51 C 201.68 141.97 204.44 139.79 207.13 135.97 M 200.57 143.51 C 202.62 141.27 204.66 138.96 207.13 135.97 M 202.28 147.65 C 204.4 144.03 209.13 140.52 212.12 136.33 M 202.28 147.65 C 204.57 145.21 207.1 141.82 212.12 136.33 M 203.98 151.78 C 209.2 146.54 212.48 142.49 217.76 135.93 M 203.98 151.78 C 206.97 147.69 210.46 145.68 217.76 135.93 M 206.35 155.16 C 210.26 151.39 215.4 144.28 222.75 136.29 M 206.35 155.16 C 211.75 148.04 217.69 141.31 222.75 136.29 M 208.05 159.29 C 217.44 149.77 223.77 139.72 228.39 135.9 M 208.05 159.29 C 215.69 151.81 221.98 141.57 228.39 135.9 M 209.76 163.43 C 216.5 156.43 219.61 148.9 233.38 136.26 M 209.76 163.43 C 218.77 153.07 227.87 141.87 233.38 136.26 M 212.12 166.81 C 224.49 153.42 235.17 143.25 239.02 135.86 M 212.12 166.81 C 217.88 159.74 223.62 152.98 239.02 135.86 M 213.83 170.94 C 223.42 156.88 234.78 146.79 244.01 136.22 M 213.83 170.94 C 224.65 158.2 234.68 145.83 244.01 136.22 M 215.54 175.07 C 225.12 163.95 236 148.59 249.65 135.83 M 215.54 175.07 C 228.61 159.39 242.22 144.35 249.65 135.83 M 218.55 177.7 C 227.63 164.02 238.57 153.03 254.64 136.19 M 218.55 177.7 C 231.27 163.46 242.21 148.82 254.64 136.19 M 211.08 192.4 C 224.22 178.7 239.1 164.13 260.28 135.79 M 211.08 192.4 C 229.5 171.14 247.78 151.37 260.28 135.79 M 204.25 206.34 C 220.59 189.24 236.6 170.83 265.27 136.15 M 204.25 206.34 C 217.8 190.69 230.83 175.85 265.27 136.15 M 199.4 218.02 C 219.01 193.32 240.85 169.27 270.91 135.76 M 199.4 218.02 C 226.57 186.14 253.18 153.6 270.91 135.76 M 204.39 218.38 C 228.73 187.88 257.16 161.18 275.9 136.12 M 204.39 218.38 C 231.41 186.79 258.12 157.73 275.9 136.12 M 210.03 217.99 C 232.91 196.15 252.89 169.53 281.54 135.72 M 210.03 217.99 C 227.95 196.04 247.45 175.53 281.54 135.72 M 215.02 218.35 C 231.75 196.33 252.35 179.13 286.53 136.08 M 215.02 218.35 C 237.87 192.51 260.34 165.43 286.53 136.08 M 220.66 217.95 C 236.52 201.08 249.41 186.61 292.17 135.69 M 220.66 217.95 C 239.09 198.32 254.97 178.01 292.17 135.69 M 225.65 218.31 C 244.7 198.55 263.62 173.42 297.16 136.05 M 225.65 218.31 C 245.82 194.75 268.86 168.44 297.16 136.05 M 230.63 218.67 C 255.97 188.94 281.08 160.78 298.86 140.18 M 230.63 218.67 C 244.6 203.34 258.84 186.54 298.86 140.18 M 236.28 218.28 C 254.88 194.56 275.57 171.92 300.57 144.32 M 236.28 218.28 C 253.61 198.1 272.03 176.23 300.57 144.32 M 241.26 218.64 C 262.18 193.78 283.08 169.94 302.93 147.7 M 241.26 218.64 C 257.68 199.4 274.12 180.78 302.93 147.7 M 246.91 218.24 C 267.3 191.45 288.93 169.18 304.64 151.83 M 246.91 218.24 C 267.01 194.73 286.97 170.69 304.64 151.83 M 251.89 218.6 C 268.56 195.49 288.21 175.9 306.35 155.96 M 251.89 218.6 C 271.61 196.54 290.98 172.82 306.35 155.96 M 257.54 218.21 C 266.63 206.42 277.68 194.87 308.71 159.34 M 257.54 218.21 C 275.37 198.08 294.22 175.96 308.71 159.34 M 262.52 218.57 C 278.27 197.68 295.41 181.89 310.42 163.48 M 262.52 218.57 C 275.54 205.09 287.85 189.74 310.42 163.48 M 268.17 218.18 C 275.53 208.78 287.14 195.38 312.12 167.61 M 268.17 218.18 C 278.71 206.34 288.37 194.02 312.12 167.61 M 273.15 218.54 C 282.85 209.35 289.64 196.12 314.49 170.99 M 273.15 218.54 C 286.88 203.66 299.93 187.53 314.49 170.99 M 278.8 218.14 C 287.85 210.27 294.76 200.21 316.19 175.12 M 278.8 218.14 C 287.46 206.46 297.54 196.35 316.19 175.12 M 283.78 218.5 C 297.71 201.21 312.22 188.02 319.21 177.75 M 283.78 218.5 C 290.44 208.87 300.1 201.58 319.21 177.75 M 289.43 218.11 C 293.75 210.69 301.87 205.32 311.73 192.45 M 289.43 218.11 C 294.3 210.3 300.26 204.93 311.73 192.45" fill="none" stroke="#d5e8d4" stroke-width="0.5" stroke-linejoin="round" stroke-linecap="round" stroke-miterlimit="10" pointer-events="all"/><path d="M 196.5 136 M 196.5 136 C 231.71 134.12 269.42 137.67 296.5 136 M 196.5 136 C 231.95 134.94 267.51 135.79 296.5 136 M 296.5 136 C 305.38 151.79 312.55 166.56 316.5 176 M 296.5 136 C 304.79 150.41 311.51 164.64 316.5 176 M 316.5 176 C 311.89 185.52 307.07 193.67 296.5 216 M 316.5 176 C 312.72 185.65 307.52 194 296.5 216 M 296.5 216 C 268.35 217.28 236.21 218.73 196.5 216 M 296.5 216 C 273.04 216.44 249.18 215.81 196.5 216 M 196.5 216 C 201.1 205.72 206.57 195.62 216.5 176 M 196.5 216 C 202.51 202.43 210.25 189.27 216.5 176 M 216.5 176 C 211.72 165.06 204.3 154.41 196.5 136 M 216.5 176 C 210.36 165.58 205.45 155.15 196.5 136" fill="none" stroke="#82b366" stroke-linejoin="round" stroke-linecap="round" stroke-miterlimit="10" pointer-events="all"/><path d="M 86.5 136 L 186.5 136 L 206.5 176 L 186.5 216 L 86.5 216 L 106.5 176 Z" fill="none" stroke="none" pointer-events="all"/><path d="M 86.5 136 C 86.5 136 86.5 136 86.5 136 M 86.5 136 C 86.5 136 86.5 136 86.5 136 M 88.21 140.13 C 89.25 138.98 89.57 138.84 91.49 136.36 M 88.21 140.13 C 89.23 139.15 90.33 137.75 91.49 136.36 M 90.57 143.51 C 93.14 140.81 94.62 139.67 97.13 135.97 M 90.57 143.51 C 92.56 141.02 94.38 138.84 97.13 135.97 M 92.28 147.65 C 95.78 144.67 97.32 140.19 102.12 136.33 M 92.28 147.65 C 96.43 143.42 99.08 139.69 102.12 136.33 M 93.98 151.78 C 98.1 147.15 103.25 139.66 107.76 135.93 M 93.98 151.78 C 99.21 147.7 102.14 141.03 107.76 135.93 M 96.35 155.16 C 103.27 147.91 106.88 141.79 112.75 136.29 M 96.35 155.16 C 102.44 148.67 106.8 142.97 112.75 136.29 M 98.05 159.29 C 104.81 153.26 110.01 148.82 118.39 135.9 M 98.05 159.29 C 104.7 151.77 111.57 143.11 118.39 135.9 M 99.76 163.43 C 106.73 157.46 111.88 149.18 123.38 136.26 M 99.76 163.43 C 107.56 154.37 117.66 143.12 123.38 136.26 M 102.12 166.81 C 109.57 159.85 113.3 152.97 129.02 135.86 M 102.12 166.81 C 111.59 156.79 120.03 146.38 129.02 135.86 M 103.83 170.94 C 112.94 161.01 122.36 152.11 134.01 136.22 M 103.83 170.94 C 115.45 156.9 125.42 145.08 134.01 136.22 M 105.54 175.07 C 117.21 161.68 127.41 148.34 139.65 135.83 M 105.54 175.07 C 117.61 160.19 131.37 144.16 139.65 135.83 M 108.55 177.7 C 116.13 168.45 128.41 156.72 144.64 136.19 M 108.55 177.7 C 120.48 163.49 131.81 151.24 144.64 136.19 M 101.08 192.4 C 118.56 175.13 131.76 158.45 150.28 135.79 M 101.08 192.4 C 113.27 179.27 124.36 164.95 150.28 135.79 M 94.25 206.34 C 114.94 185.36 136.45 162.09 155.27 136.15 M 94.25 206.34 C 109.85 188.94 124.9 171.2 155.27 136.15 M 89.4 218.02 C 111.38 193.84 135.99 167.92 160.91 135.76 M 89.4 218.02 C 108.51 197.83 124.47 177.47 160.91 135.76 M 94.39 218.38 C 113.4 196.8 131 175.5 165.9 136.12 M 94.39 218.38 C 113.61 194.78 133.34 172.39 165.9 136.12 M 100.03 217.99 C 115.82 199.14 130.16 181.83 171.54 135.72 M 100.03 217.99 C 116.2 198.13 132.86 178.18 171.54 135.72 M 105.02 218.35 C 120.81 196.14 141.49 179.7 176.53 136.08 M 105.02 218.35 C 118.99 201.97 133.34 185.04 176.53 136.08 M 110.66 217.95 C 127.56 197.92 145.89 179.24 182.17 135.69 M 110.66 217.95 C 125.43 200.74 140.1 183.71 182.17 135.69 M 115.65 218.31 C 144.35 189.09 169.34 155.5 187.16 136.05 M 115.65 218.31 C 141 189.86 163 164.03 187.16 136.05 M 120.63 218.67 C 145.09 192.46 167.85 163.82 188.86 140.18 M 120.63 218.67 C 137.53 199.41 154.05 178.85 188.86 140.18 M 126.28 218.28 C 144.18 199.66 160.97 180.78 190.57 144.32 M 126.28 218.28 C 151.63 188.43 176.77 160.55 190.57 144.32 M 131.26 218.64 C 143.54 203.38 158.83 186.95 192.93 147.7 M 131.26 218.64 C 145.29 201.99 158.87 185.9 192.93 147.7 M 136.91 218.24 C 158.68 193.5 183.58 166.03 194.64 151.83 M 136.91 218.24 C 150.5 200.79 165.29 185.74 194.64 151.83 M 141.89 218.6 C 160.25 195.36 181.64 174.41 196.35 155.96 M 141.89 218.6 C 156.79 201.33 172.69 184.56 196.35 155.96 M 147.54 218.21 C 166.07 196.88 184.31 175.97 198.71 159.34 M 147.54 218.21 C 158.97 206.01 169.85 194.3 198.71 159.34 M 152.52 218.57 C 169.59 199.25 184.55 182.18 200.42 163.48 M 152.52 218.57 C 167.12 199.95 183.54 183.52 200.42 163.48 M 158.17 218.18 C 167.75 204.98 182.35 190.03 202.12 167.61 M 158.17 218.18 C 169.65 204.5 182.68 189.52 202.12 167.61 M 163.15 218.54 C 174.96 204.93 185.28 191.52 204.49 170.99 M 163.15 218.54 C 178.64 199.93 195.11 181.93 204.49 170.99 M 168.8 218.14 C 177.22 209.13 189.32 195.53 206.19 175.12 M 168.8 218.14 C 181.3 203.48 195.05 187.62 206.19 175.12 M 173.78 218.5 C 186.86 207.16 193.87 192.53 209.21 177.75 M 173.78 218.5 C 181.4 209.6 190.79 200.25 209.21 177.75 M 179.43 218.11 C 186.28 210.39 189.63 205.21 201.73 192.45 M 179.43 218.11 C 188.24 209.67 195.59 199.9 201.73 192.45" fill="none" stroke="#d5e8d4" stroke-width="0.5" stroke-linejoin="round" stroke-linecap="round" stroke-miterlimit="10" pointer-events="all"/><path d="M 86.5 136 M 86.5 136 C 111.95 135.47 139.93 135.04 186.5 136 M 86.5 136 C 116.78 136.35 149.4 136.63 186.5 136 M 186.5 136 C 193.47 148.17 198.42 161.12 206.5 176 M 186.5 136 C 194.18 150.37 201.96 165.68 206.5 176 M 206.5 176 C 202.07 188.91 195.43 197.91 186.5 216 M 206.5 176 C 200.07 186.76 195.06 198.73 186.5 216 M 186.5 216 C 158.89 218.57 131.39 218.07 86.5 216 M 186.5 216 C 158.41 217.28 129.24 217.45 86.5 216 M 86.5 216 C 94.71 202.72 102.27 185.84 106.5 176 M 86.5 216 C 91.11 204.58 97 194.62 106.5 176 M 106.5 176 C 97.67 159.52 92.54 145.62 86.5 136 M 106.5 176 C 101.2 163 94.98 151.05 86.5 136" fill="none" stroke="#82b366" stroke-linejoin="round" stroke-linecap="round" stroke-miterlimit="10" pointer-events="all"/><path d="M 306.5 136 L 406.5 136 L 426.5 176 L 406.5 216 L 306.5 216 L 326.5 176 Z" fill="none" stroke="none" pointer-events="all"/><path d="M 306.5 136 C 306.5 136 306.5 136 306.5 136 M 306.5 136 C 306.5 136 306.5 136 306.5 136 M 308.21 140.13 C 309.3 139.41 309.45 137.81 311.49 136.36 M 308.21 140.13 C 308.95 139.17 310.19 137.81 311.49 136.36 M 310.57 143.51 C 312.59 141.66 312.81 139.55 317.13 135.97 M 310.57 143.51 C 313.5 140.77 315.1 137.72 317.13 135.97 M 312.28 147.65 C 313.94 145.31 315.29 142.86 322.12 136.33 M 312.28 147.65 C 315.05 143.89 318.85 140.59 322.12 136.33 M 313.98 151.78 C 317.93 146.93 322.19 143.17 327.76 135.93 M 313.98 151.78 C 316.7 149.15 320.31 144.99 327.76 135.93 M 316.35 155.16 C 319 148.2 325.8 146.85 332.75 136.29 M 316.35 155.16 C 321.14 149.3 325.9 144.63 332.75 136.29 M 318.05 159.29 C 326.25 152.06 330.38 144.56 338.39 135.9 M 318.05 159.29 C 324.17 151.74 331.64 142.65 338.39 135.9 M 319.76 163.43 C 326.97 158.48 330.16 149.47 343.38 136.26 M 319.76 163.43 C 328.34 153.67 335.44 144.38 343.38 136.26 M 322.12 166.81 C 330.65 156.09 336.81 150.32 349.02 135.86 M 322.12 166.81 C 329.92 158.03 335.67 150.17 349.02 135.86 M 323.83 170.94 C 328.46 165.13 335.94 157.42 354.01 136.22 M 323.83 170.94 C 336.94 157.6 348.85 142.32 354.01 136.22 M 325.54 175.07 C 335.29 164.09 348.82 148.76 359.65 135.83 M 325.54 175.07 C 339.4 158.98 351.3 143.98 359.65 135.83 M 328.55 177.7 C 337.79 168.88 343.42 160.4 364.64 136.19 M 328.55 177.7 C 340.51 164.8 352.24 150.94 364.64 136.19 M 321.08 192.4 C 337.77 171.56 357.29 152.76 370.28 135.79 M 321.08 192.4 C 334.87 175.07 350.63 156.87 370.28 135.79 M 314.25 206.34 C 325.68 190.29 340.48 176.2 375.27 136.15 M 314.25 206.34 C 331.9 187.19 348.96 166.54 375.27 136.15 M 309.4 218.02 C 332.1 188.93 359.48 161.13 380.91 135.76 M 309.4 218.02 C 331.1 193.08 354.72 166.44 380.91 135.76 M 314.39 218.38 C 340.74 189.27 365.8 156.91 385.9 136.12 M 314.39 218.38 C 341.76 184.88 370.82 152.71 385.9 136.12 M 320.03 217.99 C 347.02 189.68 370.03 161.21 391.54 135.72 M 320.03 217.99 C 334.45 201.65 350.27 184.26 391.54 135.72 M 325.02 218.35 C 343.87 201.37 360.63 181.69 396.53 136.08 M 325.02 218.35 C 346.06 194.98 366.58 169.74 396.53 136.08 M 330.66 217.95 C 348.6 196.18 368.37 173.29 402.17 135.69 M 330.66 217.95 C 358.07 187.27 383.82 155.08 402.17 135.69 M 335.65 218.31 C 354.04 192.09 374.82 170.49 407.16 136.05 M 335.65 218.31 C 362.54 188.41 387.51 159.06 407.16 136.05 M 340.63 218.67 C 362.65 195.98 383.05 170.85 408.86 140.18 M 340.63 218.67 C 362.04 195.49 380.84 173.17 408.86 140.18 M 346.28 218.28 C 359.47 200.75 372.37 185.65 410.57 144.32 M 346.28 218.28 C 365.31 196.84 384.32 173.73 410.57 144.32 M 351.26 218.64 C 371.23 197.55 389.24 178.35 412.93 147.7 M 351.26 218.64 C 374.66 191.63 397.7 165.88 412.93 147.7 M 356.91 218.24 C 367.2 203.68 379.81 188.28 414.64 151.83 M 356.91 218.24 C 376.86 196.72 396.04 173.38 414.64 151.83 M 361.89 218.6 C 383.18 195.22 402.32 172.92 416.35 155.96 M 361.89 218.6 C 383.6 194.69 402.92 170.33 416.35 155.96 M 367.54 218.21 C 385.28 200.15 400.48 181.63 418.71 159.34 M 367.54 218.21 C 380.81 204.16 393.95 189.1 418.71 159.34 M 372.52 218.57 C 385.81 201.78 398.6 187.42 420.42 163.48 M 372.52 218.57 C 391.79 196.82 410.34 175.31 420.42 163.48 M 378.17 218.18 C 388.96 202.06 402.55 189.55 422.12 167.61 M 378.17 218.18 C 393.6 200.66 408.01 185.03 422.12 167.61 M 383.15 218.54 C 396.12 200.51 409.96 186.93 424.49 170.99 M 383.15 218.54 C 392.14 207.7 401.75 197.34 424.49 170.99 M 388.8 218.14 C 400.6 207.25 409.88 194.1 426.19 175.12 M 388.8 218.14 C 396.8 207.84 406.75 198.85 426.19 175.12 M 393.78 218.5 C 401.2 209.1 408.69 201.04 429.21 177.75 M 393.78 218.5 C 401.54 208.32 408.67 198.92 429.21 177.75 M 399.43 218.11 C 408.77 208.96 415.8 198.83 421.73 192.45 M 399.43 218.11 C 406.23 211.72 410.51 204.69 421.73 192.45" fill="none" stroke="#d5e8d4" stroke-width="0.5" stroke-linejoin="round" stroke-linecap="round" stroke-miterlimit="10" pointer-events="all"/><path d="M 306.5 136 M 306.5 136 C 342.18 134.82 376.45 134.41 406.5 136 M 306.5 136 C 333.61 135.75 359.28 135.46 406.5 136 M 406.5 136 C 410.76 148.95 417.49 160.08 426.5 176 M 406.5 136 C 413.58 150.34 420.41 164.71 426.5 176 M 426.5 176 C 418.25 192.7 409.8 206.54 406.5 216 M 426.5 176 C 419.42 189.47 412.59 203.05 406.5 216 M 406.5 216 C 379.43 213.87 356.58 215.41 306.5 216 M 406.5 216 C 373.78 216.13 339.29 217.09 306.5 216 M 306.5 216 C 311.12 204.12 316.78 196.46 326.5 176 M 306.5 216 C 309.71 206.34 315.76 199.57 326.5 176 M 326.5 176 C 321.62 166.37 314.77 153.23 306.5 136 M 326.5 176 C 319.24 162.43 313.7 148.94 306.5 136" fill="none" stroke="#82b366" stroke-linejoin="round" stroke-linecap="round" stroke-miterlimit="10" pointer-events="all"/><path d="M 416.5 136 L 516.5 136 L 536.5 176 L 516.5 216 L 416.5 216 L 436.5 176 Z" fill="none" stroke="none" pointer-events="all"/><path d="M 416.5 136 C 416.5 136 416.5 136 416.5 136 M 416.5 136 C 416.5 136 416.5 136 416.5 136 M 418.21 140.13 C 419.35 138.84 420.33 137.77 421.49 136.36 M 418.21 140.13 C 419.17 139.19 420.05 138.36 421.49 136.36 M 420.57 143.51 C 423.2 140.99 425.47 138.42 427.13 135.97 M 420.57 143.51 C 421.98 142.03 423.05 140.63 427.13 135.97 M 422.28 147.65 C 427.29 143.69 430.43 138 432.12 136.33 M 422.28 147.65 C 424.95 144.36 428.39 141.49 432.12 136.33 M 423.98 151.78 C 426.84 147.53 432.96 140.33 437.76 135.93 M 423.98 151.78 C 428.95 147.16 431.99 142.34 437.76 135.93 M 426.35 155.16 C 432 148.72 437.28 140.37 442.75 136.29 M 426.35 155.16 C 429.84 149.93 435.01 146.29 442.75 136.29 M 428.05 159.29 C 433.62 155.14 436.61 149.25 448.39 135.9 M 428.05 159.29 C 435.18 152.11 441.24 144.59 448.39 135.9 M 429.76 163.43 C 436.66 155.51 441.89 149.75 453.38 136.26 M 429.76 163.43 C 437.66 154.97 443.77 147.63 453.38 136.26 M 432.12 166.81 C 441.73 155.78 450.32 143.12 459.02 135.86 M 432.12 166.81 C 441.63 155.08 452.08 143.57 459.02 135.86 M 433.83 170.94 C 444.01 158.31 455.59 148.86 464.01 136.22 M 433.83 170.94 C 441.7 163.85 447.51 156.06 464.01 136.22 M 435.54 175.07 C 447.38 162.5 456.23 149.19 469.65 135.83 M 435.54 175.07 C 449.19 159.78 463.23 143.79 469.65 135.83 M 438.55 177.7 C 452.67 161.73 462.87 148.2 474.64 136.19 M 438.55 177.7 C 450.55 164.11 460.67 152.64 474.64 136.19 M 431.08 192.4 C 441.14 179.31 449.14 169.72 480.28 135.79 M 431.08 192.4 C 449.61 169.88 468.04 149.81 480.28 135.79 M 424.25 206.34 C 440.03 186.4 456.32 167.46 485.27 136.15 M 424.25 206.34 C 443.94 184.22 463.02 162.66 485.27 136.15 M 419.4 218.02 C 442.83 189.44 468.98 159.77 490.91 135.76 M 419.4 218.02 C 445.7 186.32 472.98 157.4 490.91 135.76 M 424.39 218.38 C 445.41 194.19 463.64 171.23 495.9 136.12 M 424.39 218.38 C 445.6 192.87 467.69 169.36 495.9 136.12 M 430.03 217.99 C 449.93 192.67 471.3 169.51 501.54 135.72 M 430.03 217.99 C 457 185.28 484.29 154.01 501.54 135.72 M 435.02 218.35 C 452.93 201.18 469.78 182.26 506.53 136.08 M 435.02 218.35 C 463.13 187.99 489.82 156.44 506.53 136.08 M 440.66 217.95 C 459.64 193.02 484.85 169.92 512.17 135.69 M 440.66 217.95 C 466.41 189.69 490.95 160.78 512.17 135.69 M 445.65 218.31 C 459.38 200.51 475.94 186.91 517.16 136.05 M 445.65 218.31 C 474.09 186.96 502.01 154.08 517.16 136.05 M 450.63 218.67 C 470.21 194.14 488.25 172.53 518.86 140.18 M 450.63 218.67 C 472.98 192.93 496.05 166.84 518.86 140.18 M 456.28 218.28 C 477.62 191.06 503.5 164.93 520.57 144.32 M 456.28 218.28 C 470.47 201.97 483.34 187.63 520.57 144.32 M 461.26 218.64 C 483.5 192.95 504.24 166.99 522.93 147.7 M 461.26 218.64 C 482.27 194.22 502.45 171.01 522.93 147.7 M 466.91 218.24 C 478.58 200.58 494.46 187.97 524.64 151.83 M 466.91 218.24 C 480.34 202.78 494.36 186.44 524.64 151.83 M 471.89 218.6 C 490.87 195.09 511.74 171.44 526.35 155.96 M 471.89 218.6 C 488.78 200.57 504.62 181.15 526.35 155.96 M 477.54 218.21 C 490.48 203.41 506.64 183.3 528.71 159.34 M 477.54 218.21 C 492.64 199.29 510.06 182.88 528.71 159.34 M 482.52 218.57 C 493.12 203.35 507.74 191.71 530.42 163.48 M 482.52 218.57 C 495.79 204.7 508.88 189.13 530.42 163.48 M 488.17 218.18 C 501.18 202.26 517.75 184.19 532.12 167.61 M 488.17 218.18 C 504.54 198.82 522.33 178.53 532.12 167.61 M 493.15 218.54 C 503.01 209.59 508.12 197.35 534.49 170.99 M 493.15 218.54 C 503.91 203.97 516.93 191.74 534.49 170.99 M 498.8 218.14 C 509.97 205.37 524.44 188.67 536.19 175.12 M 498.8 218.14 C 509.77 205.61 521.4 192.88 536.19 175.12 M 503.78 218.5 C 516.62 206.9 527.69 193.24 539.21 177.75 M 503.78 218.5 C 512.5 209.05 519.36 199.59 539.21 177.75 M 509.43 218.11 C 516.8 208.66 527.05 198.72 531.73 192.45 M 509.43 218.11 C 518.17 208.64 525.84 199.21 531.73 192.45" fill="none" stroke="#d5e8d4" stroke-width="0.5" stroke-linejoin="round" stroke-linecap="round" stroke-miterlimit="10" pointer-events="all"/><path d="M 416.5 136 M 416.5 136 C 442.41 136.17 466.96 135.78 516.5 136 M 416.5 136 C 438.45 135.16 459.16 136.29 516.5 136 M 516.5 136 C 522.85 145.34 527.37 158.63 536.5 176 M 516.5 136 C 524.97 150.3 530.87 165.75 536.5 176 M 536.5 176 C 532.42 184.09 526.16 194.77 516.5 216 M 536.5 176 C 531.57 184.18 528.92 191.38 516.5 216 M 516.5 216 C 493.97 215.17 467.77 214.76 416.5 216 M 516.5 216 C 477.16 216.97 439.35 216.73 416.5 216 M 416.5 216 C 421.54 201.12 429.29 190.68 436.5 176 M 416.5 216 C 422.31 202.5 430.52 188.92 436.5 176 M 436.5 176 C 427.57 160.83 423 144.44 416.5 136 M 436.5 176 C 430.08 161.85 421.22 146.83 416.5 136" fill="none" stroke="#82b366" stroke-linejoin="round" stroke-linecap="round" stroke-miterlimit="10" pointer-events="all"/><path d="M 450.36 118.37 C 451.27 114.99 453.54 112.17 456.62 110.6 C 459.69 109.04 463.28 108.88 466.48 110.17 C 471.13 112.47 474.74 116.51 476.55 121.45 C 484.86 97.41 497.49 75.16 513.81 55.83 C 518.44 51.55 524.91 50 530.93 51.73 C 532.47 51.98 533.77 53.01 534.39 54.47 C 535 55.93 534.84 57.6 533.95 58.91 C 511.77 84.4 495.28 114.48 485.61 147.08 C 479.91 150 473.18 150 467.48 147.08 C 463.18 137.34 457.4 128.35 450.36 120.42 C 450 119.79 450 119.01 450.36 118.37 Z" fill="none" stroke="none" pointer-events="all"/><path d="M 452.84 113.62 C 452.84 113.62 452.84 113.62 452.84 113.62 M 452.84 113.62 C 452.84 113.62 452.84 113.62 452.84 113.62 M 451.26 121.53 C 452.37 120.42 455.05 118.31 459.14 112.47 M 451.26 121.53 C 454.06 118.02 457.35 114.89 459.14 112.47 M 453.63 124.91 C 457.6 119.47 462.48 115.8 465.44 111.32 M 453.63 124.91 C 457.12 120.68 461.74 116.7 465.44 111.32 M 456.65 127.53 C 463 121.96 465.36 115.54 469.11 113.19 M 456.65 127.53 C 462.11 121.83 466.18 116.61 469.11 113.19 M 517 58.1 C 519.26 54.96 521.14 53.3 522.25 52.06 M 517 58.1 C 519.08 56.09 521.38 53.25 522.25 52.06 M 459.01 130.91 C 463.88 125.91 467.85 122.46 472.79 115.06 M 459.01 130.91 C 462.74 126.22 466.73 122.39 472.79 115.06 M 495.09 89.4 C 507.86 75.05 517.91 59.37 527.24 52.42 M 495.09 89.4 C 504.29 79.24 513.59 69.83 527.24 52.42 M 461.37 134.29 C 463.22 131.83 465.47 128.41 475.15 118.44 M 461.37 134.29 C 465.28 129.74 468.71 126.37 475.15 118.44 M 489.58 101.84 C 497.21 93.03 507.54 80.04 532.23 52.78 M 489.58 101.84 C 502.66 84.47 518.41 69.3 532.23 52.78 M 463.08 138.42 C 481.59 115.07 502.42 94.3 535.25 55.4 M 463.08 138.42 C 485.33 112.77 506.29 87.74 535.25 55.4 M 465.44 141.8 C 485.86 120.29 502.51 97.41 519.24 79.91 M 465.44 141.8 C 482.33 122.97 497.49 103.25 519.24 79.91 M 467.15 145.93 C 483.69 129.49 499.49 111.66 508.48 98.39 M 467.15 145.93 C 480.32 129.79 494.06 114.64 508.48 98.39 M 469.51 149.31 C 479.55 134.98 494.46 120.57 501 113.09 M 469.51 149.31 C 479.54 138.14 489.84 127.25 501 113.09 M 473.84 150.43 C 481.29 143.54 485.96 137.12 496.8 124.01 M 473.84 150.43 C 477.85 144.12 484.12 139.76 496.8 124.01 M 478.83 150.79 C 483.68 144.39 490.65 140 492.61 134.94 M 478.83 150.79 C 481.27 147.8 484.56 143.59 492.61 134.94" fill="none" stroke="#00ff00" stroke-width="0.5" stroke-linejoin="round" stroke-linecap="round" stroke-miterlimit="10" pointer-events="all"/><path d="M 450.36 118.37 M 450.36 118.37 C 451.13 115.24 453.45 111.75 456.62 110.6 M 450.36 118.37 C 452.33 112.94 455.66 111.41 456.62 110.6 M 456.62 110.6 C 460.85 108.1 463.17 108.36 466.48 110.17 M 456.62 110.6 C 460.36 110.94 461.33 107.29 466.48 110.17 M 466.48 110.17 C 470.79 112.85 476.55 115.41 476.55 121.45 M 466.48 110.17 C 470.45 113.76 474.35 118.75 476.55 121.45 M 476.55 121.45 C 486.16 98.67 499.08 76.06 513.81 55.83 M 476.55 121.45 C 484.09 99.34 499.62 75.6 513.81 55.83 M 513.81 55.83 C 518.44 50.31 524.09 50.53 530.93 51.73 M 513.81 55.83 C 516.48 52 525.85 51.13 530.93 51.73 M 530.93 51.73 C 534.18 53.93 532.28 53.88 534.39 54.47 M 530.93 51.73 C 530.45 50.05 534.34 51.66 534.39 54.47 M 534.39 54.47 C 535.37 55.82 534.36 58.58 533.95 58.91 M 534.39 54.47 C 536.26 56.54 535.78 58.7 533.95 58.91 M 533.95 58.91 C 513.68 86.04 493.42 114.39 485.61 147.08 M 533.95 58.91 C 512.7 84.5 497.27 112.7 485.61 147.08 M 485.61 147.08 C 480.19 150.26 471.51 150.73 467.48 147.08 M 485.61 147.08 C 479.11 147.76 472.23 148.13 467.48 147.08 M 467.48 147.08 C 464.58 138.17 457.4 126.86 450.36 120.42 M 467.48 147.08 C 461.49 136.74 458.63 128.09 450.36 120.42 M 450.36 120.42 C 449.21 120.18 449.11 119.31 450.36 118.37 M 450.36 120.42 C 450.49 121.44 449.27 120.99 450.36 118.37 M 450.36 118.37 C 450.36 118.37 450.36 118.37 450.36 118.37 M 450.36 118.37 C 450.36 118.37 450.36 118.37 450.36 118.37" fill="none" stroke="#00cc00" stroke-linejoin="round" stroke-linecap="round" stroke-miterlimit="10" pointer-events="all"/><path d="M 604.83 114.58 L 656 115.33 L 661.81 121.68 L 658.73 143.98 L 655.71 145.31 L 603.29 144.36 L 601.23 139.78 L 599.47 121.28 L 599.68 116.53 L 603.32 114.22" fill="rgb(255, 255, 255)" stroke="none" pointer-events="none"/><path d="M 604.5 116 M 604.5 116 C 622.82 117.23 645.95 114.6 655.5 116 M 604.5 116 C 621.3 115.55 636.77 115.62 655.5 116 M 655.5 116 C 658.94 115.3 660.74 116.72 660 120.5 M 655.5 116 C 656.59 114.81 659.21 118.44 660 120.5 M 660 120.5 C 661.94 123.87 659.35 129.48 660 141.5 M 660 120.5 C 659.16 125.54 659.18 130.98 660 141.5 M 660 141.5 C 659.6 146.2 657.61 145.28 655.5 146 M 660 141.5 C 659.56 145.78 659.58 145.69 655.5 146 M 655.5 146 C 638.97 144.9 622.93 144.89 604.5 146 M 655.5 146 C 636.64 146.34 618.26 145.45 604.5 146 M 604.5 146 C 599.59 147.23 601.71 145.44 600 141.5 M 604.5 146 C 602.96 143.8 598.11 143.87 600 141.5 M 600 141.5 C 599.88 136.75 602.13 130.69 600 120.5 M 600 141.5 C 599.37 135.58 599.94 130.2 600 120.5 M 600 120.5 C 600.55 117.87 602.43 114.95 604.5 116 M 600 120.5 C 599.36 118.52 600.83 115.1 604.5 116" fill="none" stroke="rgb(0, 0, 0)" stroke-linejoin="round" stroke-linecap="round" stroke-miterlimit="10" pointer-events="none"/><path d="M 654.83 181.26 L 706.81 183.05 L 709.74 187.04 L 711.05 208.86 L 706.25 213.73 L 654.07 211.22 L 650.32 207.51 L 650.87 188.33 L 651.43 181.79 L 653.67 181.19" fill="rgb(255, 255, 255)" stroke="none" pointer-events="none"/><path d="M 654.5 182 M 654.5 182 C 669.05 183.96 683.18 180.92 705.5 182 M 654.5 182 C 665.06 181.04 676.71 181.1 705.5 182 M 705.5 182 C 710.2 182.94 711.93 183.53 710 186.5 M 705.5 182 C 707.7 181.45 710.43 184.56 710 186.5 M 710 186.5 C 708.71 191.54 711.18 198.47 710 207.5 M 710 186.5 C 710.38 193.54 710.74 202.83 710 207.5 M 710 207.5 C 708.65 208.66 707.84 210.71 705.5 212 M 710 207.5 C 709.15 208.39 708.65 211.66 705.5 212 M 705.5 212 C 688.5 210.52 676.73 210.19 654.5 212 M 705.5 212 C 690.59 212.69 676.59 212.49 654.5 212 M 654.5 212 C 652.05 210.54 648.59 211.44 650 207.5 M 654.5 212 C 649.4 211.39 651.46 210.33 650 207.5 M 650 207.5 C 648.73 198.99 651.76 193.5 650 186.5 M 650 207.5 C 650.09 201.32 650.14 195.73 650 186.5 M 650 186.5 C 648.65 184 650.66 181.21 654.5 182 M 650 186.5 C 650.14 183.09 652.54 180.73 654.5 182" fill="none" stroke="rgb(0, 0, 0)" stroke-linejoin="round" stroke-linecap="round" stroke-miterlimit="10" pointer-events="none"/><path d="M 630 146 M 630 146 C 630.26 151.92 629.33 160.65 630 166 M 630 146 C 629.74 153.75 629.43 160.02 630 166 M 630 166 C 645.38 165.9 659.56 164.94 680 166 M 630 166 C 647.36 165.1 664.99 165.25 680 166 M 680 166 C 679.91 168.87 679.91 172.44 680 175.63 M 680 166 C 680.31 169.15 679.65 172.26 680 175.63" fill="none" stroke="rgb(0, 0, 0)" stroke-linejoin="round" stroke-linecap="round" stroke-miterlimit="10" pointer-events="none"/><path d="M 676.33 174.07 C 676.33 174.07 676.33 174.07 676.33 174.07 M 676.33 174.07 C 676.33 174.07 676.33 174.07 676.33 174.07 M 678.69 177.45 C 679.18 177.01 679.56 176.49 680.01 175.94 M 678.69 177.45 C 679.13 176.85 679.6 176.33 680.01 175.94" fill="none" stroke="rgb(0, 0, 0)" stroke-width="0.5" stroke-linejoin="round" stroke-linecap="round" stroke-miterlimit="10" pointer-events="none"/><path d="M 680 180.88 M 680 180.88 C 678.81 178.33 677.66 176.36 676.5 173.88 M 680 180.88 C 679.14 178.86 677.52 176.79 676.5 173.88 M 676.5 173.88 C 677.68 174.79 678.83 175.15 680 175.63 M 676.5 173.88 C 677.61 174.72 679.12 175.16 680 175.63 M 680 175.63 C 681.5 174.76 682.43 174.16 683.5 173.88 M 680 175.63 C 680.8 175.15 681.81 174.53 683.5 173.88 M 683.5 173.88 C 682.71 176.3 681.06 178.53 680 180.88 M 683.5 173.88 C 682.82 175.67 681.95 176.74 680 180.88" fill="none" stroke="rgb(0, 0, 0)" stroke-linejoin="round" stroke-linecap="round" stroke-miterlimit="10" pointer-events="none"/><path d="M 560.33 231.6 L 565.16 228.27 L 570.91 224.7 L 588.28 227.3 L 599.45 228.6 L 599.94 231.92 L 601.46 260.08 L 592.76 265.34 L 579.19 264.29 L 570.16 266.65 L 561.95 260.84 L 559.56 261.51 L 560.22 231.96" fill="rgb(255, 255, 255)" stroke="none" pointer-events="none"/><path d="M 560 232 M 560 232 C 558.97 230.25 567.84 226.18 580 226 M 560 232 C 558.51 230.62 568.94 225.73 580 226 M 580 226 C 591.38 227.76 600.53 229.12 600 232 M 580 226 C 593.11 225.78 601.04 227.52 600 232 M 600 232 C 601.58 237.68 600.59 247.07 600 260 M 600 232 C 599.23 240.18 599.75 250.55 600 260 M 600 260 C 600.18 263.7 590.5 266.42 580 266 M 600 260 C 601.25 264.11 590.73 267.94 580 266 M 580 266 C 568.77 266.68 560.88 264.9 560 260 M 580 266 C 569.65 264.61 560.15 262.04 560 260 M 560 260 C 560.36 253.26 560.64 245.41 560 232 M 560 260 C 559.17 252.81 559.22 245.49 560 232" fill="none" stroke="rgb(0, 0, 0)" stroke-linejoin="round" stroke-linecap="round" stroke-miterlimit="10" pointer-events="none"/><path d="M 600 232 M 600 232 C 600.33 234.91 592.79 237.62 580 238 M 600 232 C 598.51 233.27 591.62 238.95 580 238 M 580 238 C 569.97 236.93 559.94 235.23 560 232 M 580 238 C 571.09 236.71 561.81 235.73 560 232" fill="none" stroke="rgb(0, 0, 0)" stroke-linejoin="round" stroke-linecap="round" stroke-miterlimit="10" pointer-events="none"/><path d="M 660.33 231.94 L 663.56 227.13 L 673.88 226.38 L 687.45 224.74 L 699.72 229.81 L 698.33 232.35 L 699 262.95 L 689.46 263.87 L 678.07 267.92 L 668.33 265.14 L 662.79 260.35 L 659.91 258.58 L 658.67 231.5" fill="rgb(255, 255, 255)" stroke="none" pointer-events="none"/><path d="M 660 232 M 660 232 C 659.22 229.35 667.07 225.97 680 226 M 660 232 C 658.93 229.92 670.24 227.3 680 226 M 680 226 C 690.01 224.57 699.12 229.52 700 232 M 680 226 C 691.36 226.1 701.65 229.88 700 232 M 700 232 C 699.93 235.99 699.46 245.54 700 260 M 700 232 C 699.56 238.75 700.25 247.59 700 260 M 700 260 C 701.7 261.93 690.62 264.13 680 266 M 700 260 C 698.75 262.42 690.26 265.62 680 266 M 680 266 C 668.64 264.76 658.61 264.35 660 260 M 680 266 C 667.21 266.08 662.13 261.19 660 260 M 660 260 C 659.3 253.39 660.26 243.32 660 232 M 660 260 C 659.61 252.24 660.17 243.75 660 232" fill="none" stroke="rgb(0, 0, 0)" stroke-linejoin="round" stroke-linecap="round" stroke-miterlimit="10" pointer-events="none"/><path d="M 700 232 M 700 232 C 700.33 235.25 691.2 236.48 680 238 M 700 232 C 701.91 235.2 690.66 236.01 680 238 M 680 238 C 670.24 238.14 658.33 235.66 660 232 M 680 238 C 668.27 240 658.02 234.04 660 232" fill="none" stroke="rgb(0, 0, 0)" stroke-linejoin="round" stroke-linecap="round" stroke-miterlimit="10" pointer-events="none"/><path d="M 680 212 M 680 212 C 680.78 215 679.52 216.95 680 219.63 M 680 212 C 679.92 213.93 680.24 216.82 680 219.63" fill="none" stroke="rgb(0, 0, 0)" stroke-linejoin="round" stroke-linecap="round" stroke-miterlimit="10" pointer-events="none"/><path d="M 676.47 217.92 C 676.47 217.92 676.47 217.92 676.47 217.92 M 676.47 217.92 C 676.47 217.92 676.47 217.92 676.47 217.92 M 678.17 222.05 C 678.92 221.26 679.28 220.52 680.14 219.79 M 678.17 222.05 C 678.79 221.5 679.36 220.77 680.14 219.79" fill="none" stroke="rgb(0, 0, 0)" stroke-width="0.5" stroke-linejoin="round" stroke-linecap="round" stroke-miterlimit="10" pointer-events="none"/><path d="M 680 224.88 M 680 224.88 C 678.61 223.77 677.72 221.94 676.5 217.88 M 680 224.88 C 678.22 222.34 677.11 219.61 676.5 217.88 M 676.5 217.88 C 678.19 218.91 679.04 219.34 680 219.63 M 676.5 217.88 C 677.55 218.51 678.4 218.72 680 219.63 M 680 219.63 C 681.21 218.77 682.3 218.94 683.5 217.88 M 680 219.63 C 681.14 219.04 682.16 218.78 683.5 217.88 M 683.5 217.88 C 682.39 220.26 681.67 222.78 680 224.88 M 683.5 217.88 C 682.49 220.52 681.18 222.75 680 224.88" fill="none" stroke="rgb(0, 0, 0)" stroke-linejoin="round" stroke-linecap="round" stroke-miterlimit="10" pointer-events="none"/><path d="M 580 212 M 580 212 C 579.68 213.86 580.4 217.27 580 219.63 M 580 212 C 580.21 214.06 579.93 215.18 580 219.63" fill="none" stroke="rgb(0, 0, 0)" stroke-linejoin="round" stroke-linecap="round" stroke-miterlimit="10" pointer-events="none"/><path d="M 576.21 218.21 C 576.21 218.21 576.21 218.21 576.21 218.21 M 576.21 218.21 C 576.21 218.21 576.21 218.21 576.21 218.21 M 578.57 221.59 C 579.08 220.92 579.38 220.61 579.88 220.08 M 578.57 221.59 C 578.9 220.99 579.42 220.69 579.88 220.08" fill="none" stroke="rgb(0, 0, 0)" stroke-width="0.5" stroke-linejoin="round" stroke-linecap="round" stroke-miterlimit="10" pointer-events="none"/><path d="M 580 224.88 M 580 224.88 C 578.71 223.05 578.47 220.37 576.5 217.88 M 580 224.88 C 578.75 222.57 577.39 219.77 576.5 217.88 M 576.5 217.88 C 577.21 218.67 578.25 218.5 580 219.63 M 576.5 217.88 C 577.58 218.61 578.95 218.94 580 219.63 M 580 219.63 C 580.6 219.33 581.25 218.51 583.5 217.88 M 580 219.63 C 581.32 218.89 582.69 218.27 583.5 217.88 M 583.5 217.88 C 582.12 220.36 581.28 221.25 580 224.88 M 583.5 217.88 C 581.91 220.83 580.87 223.18 580 224.88" fill="none" stroke="rgb(0, 0, 0)" stroke-linejoin="round" stroke-linecap="round" stroke-miterlimit="10" pointer-events="none"/><path d="M 598.69 114.17 L 600.94 133.44 C 605.32 129.43 608.74 125.89 611.33 121.66 C 613.58 117.93 614.53 114.19 614.46 110.5 C 614.02 104.9 612.18 102.83 607.79 100.84 C 600.81 97.85 593.9 100.52 589.88 102.57 Z M 573.98 116.29 C 571.14 120.31 569.05 124.77 567.83 129.73 C 566.19 138.12 568.58 142.49 571.12 145.14 C 575.41 148.89 580.62 149.88 584.99 149.8 C 593.49 149.13 600.86 143.87 606.01 138.94 C 612.73 132.39 618.39 124.28 620.07 115.03 C 620.78 109.88 621.18 104.22 616.99 98.58 C 613.46 94.67 607.28 92.32 600.65 92.99 C 596.09 93.48 591.33 95.2 586.41 97.8 L 589.2 101.53 C 593.72 99.13 598.37 97.62 602.23 97.44 C 607.04 97.35 612.06 98.84 614.49 102.77 C 616.85 106.43 617.42 112.57 614.15 119.17 C 611.61 124.74 606.54 130.29 601.13 134.28 L 601.18 135.25 L 581.74 126.81 Z M 560 129.27 C 561.47 122.46 565.14 116.12 569.69 110.49 L 562 100.54 C 561.33 99.53 561.09 96.58 562.56 94.1 C 565.36 89.8 567.85 87.72 574.14 86.41 C 576.06 86 578.3 86.92 578.75 87.55 L 585.56 96.77 C 589.44 94.52 594 91.41 602.14 90.41 C 608.9 89.64 614.62 91.01 618.78 95.6 C 624 100.67 623.8 108.23 622.56 113.98 C 620.68 122.92 615.82 131.12 607.41 139.83 C 600.31 146.04 590.69 154.6 576.35 151.52 C 571.64 150.3 565.32 145.93 565.46 136.64 C 565.46 129.66 567.33 121.81 573.3 115.45 L 570.13 111.19 C 567.22 114.52 562.04 121.88 560.77 129.25 Z" fill="#ffffff" stroke="none" pointer-events="none"/><path d="M 582.56 125.67 L 563.04 99.63 C 562.55 99.1 562.58 96.95 563.2 95.63 C 563.68 94.24 565.47 92.05 568.06 89.98 C 570.18 88.66 576.05 86.59 577.77 88.44 L 597.41 114.47 L 599.75 133.22 Z" fill="#41577d" stroke="none" pointer-events="none"/><path d="M 594.57 128.88 L 584.58 124.4 C 586.55 121.58 586.99 118.97 586.8 116.44 C 590.2 117.37 592.88 116.6 595.26 115.13 L 596.94 126.94 C 596.12 127.05 595.08 127.86 594.57 128.88 Z" fill="#fdd4ae" stroke="none" pointer-events="none"/><path d="M 583.6 123.66 L 570.42 105.94 C 571.26 103.94 572.49 101.95 574.43 100.78 L 584.68 114.6 C 586.56 117.97 585.43 121.57 583.6 123.66 Z" fill="#8eb3d7" stroke="none" pointer-events="none"/><path d="M 581.68 97.02 L 594.49 114.17 C 593.01 115.75 587.58 116.43 585.64 114.32 L 575.04 100.22 C 576.59 98.62 579.07 97.47 581.68 97.02 Z" fill="#bddaf1" stroke="none" pointer-events="none"/><path d="M 569.08 104.23 L 566.62 101.03 C 567.72 98.19 569.31 96.14 571.35 94.83 C 574.33 92.87 576.09 92.34 577.99 91.89 L 580.51 95.38 C 578.8 95.84 576.38 96.53 574.09 98.13 C 571.49 100.12 569.92 102.44 569.08 104.23 Z" fill="#deddde" stroke="none" pointer-events="none"/><path d="M 574.6 97.77 L 571.84 94.5 C 573.17 93.71 574.51 92.92 576.25 92.34 L 578.69 95.89 C 577.29 96.32 575.94 97 574.6 97.77 Z" fill="#ffffff" stroke="none" pointer-events="none"/><path d="M 565.18 99.56 C 564.35 96.52 566.62 93.15 569.24 91.57 C 572.35 89.83 574.59 89.35 577.03 90.36 C 575.65 90.42 573.27 90.82 569.85 93.3 C 567.44 94.98 565.38 98.09 565.18 99.56 Z" fill="#fac5c5" stroke="none" pointer-events="none"/><path d="M 554.83 180.92 L 608.4 184.19 L 610.77 185.36 L 607.89 211.42 L 605.98 212.52 L 551.68 210.79 L 548.77 208.65 L 550.17 185.81 L 552.56 182.16 L 555.49 182.7" fill="rgb(255, 255, 255)" stroke="none" pointer-events="none"/><path d="M 554.5 182 M 554.5 182 C 565.84 181.59 579.36 180.76 605.5 182 M 554.5 182 C 569.18 181.3 582.74 182.36 605.5 182 M 605.5 182 C 607.57 182.12 609.34 183.13 610 186.5 M 605.5 182 C 609.44 181.13 609.82 182.2 610 186.5 M 610 186.5 C 610.32 192.81 608.26 203.17 610 207.5 M 610 186.5 C 609.98 190.44 610.17 194.71 610 207.5 M 610 207.5 C 611.13 210.43 607.73 212.99 605.5 212 M 610 207.5 C 611.66 210.09 609.11 213.97 605.5 212 M 605.5 212 C 588.74 213.22 574.83 213.05 554.5 212 M 605.5 212 C 589.61 212.02 572.42 211.48 554.5 212 M 554.5 212 C 552.82 213.88 550.15 211.44 550 207.5 M 554.5 212 C 553.48 210.6 549.78 210.1 550 207.5 M 550 207.5 C 551.31 202.97 551.95 197.29 550 186.5 M 550 207.5 C 549.73 202.45 550.04 196.97 550 186.5 M 550 186.5 C 551.6 183.93 549.54 183.08 554.5 182 M 550 186.5 C 549.75 183.8 551.69 180.92 554.5 182" fill="none" stroke="rgb(0, 0, 0)" stroke-linejoin="round" stroke-linecap="round" stroke-miterlimit="10" pointer-events="none"/><path d="M 630 146 M 630 146 C 631.37 152.96 631.61 157.49 630 166 M 630 146 C 630.52 152.1 630.63 157.71 630 166 M 630 166 C 619.09 167.92 603.75 164.29 580 166 M 630 166 C 611.76 165.43 592.13 165.8 580 166 M 580 166 C 580.21 168.7 579.26 173.84 580 175.63 M 580 166 C 579.78 168.68 580.56 170.97 580 175.63" fill="none" stroke="rgb(0, 0, 0)" stroke-linejoin="round" stroke-linecap="round" stroke-miterlimit="10" pointer-events="none"/><path d="M 576.73 173.62 C 576.73 173.62 576.73 173.62 576.73 173.62 M 576.73 173.62 C 576.73 173.62 576.73 173.62 576.73 173.62 M 578.44 177.75 C 579.14 177.43 579.2 176.32 580.4 175.49 M 578.44 177.75 C 579.26 176.83 579.87 176.03 580.4 175.49" fill="none" stroke="rgb(0, 0, 0)" stroke-width="0.5" stroke-linejoin="round" stroke-linecap="round" stroke-miterlimit="10" pointer-events="none"/><path d="M 580 180.88 M 580 180.88 C 578.9 177.61 576.85 176.35 576.5 173.88 M 580 180.88 C 578.75 179.09 578.44 176.95 576.5 173.88 M 576.5 173.88 C 577.41 174.12 578.66 175.01 580 175.63 M 576.5 173.88 C 577.36 174.08 577.92 174.68 580 175.63 M 580 175.63 C 580.88 175.32 582.17 174.51 583.5 173.88 M 580 175.63 C 581.38 174.99 582.72 174.41 583.5 173.88 M 583.5 173.88 C 582.44 176.4 582.24 177.01 580 180.88 M 583.5 173.88 C 582.89 175.92 581.5 177.88 580 180.88" fill="none" stroke="rgb(0, 0, 0)" stroke-linejoin="round" stroke-linecap="round" stroke-miterlimit="10" pointer-events="none"/><path d="M 296.51 260.38 C 296.51 260.38 296.51 260.38 296.51 260.38 M 296.51 260.38 C 296.51 260.38 296.51 260.38 296.51 260.38 M 291.66 272.06 C 294.95 266.08 300.34 258.87 310.69 250.18 M 291.66 272.06 C 299.34 263.78 305.59 256.19 310.69 250.18 M 292.05 277.71 C 299.49 269 306.51 258.25 318.95 246.76 M 292.05 277.71 C 300.19 266.91 309.7 255.23 318.95 246.76 M 291.79 284.1 C 302.89 271.48 311.65 259.94 325.91 244.86 M 291.79 284.1 C 302.7 270.74 313.39 257.91 325.91 244.86 M 336.4 232.78 C 336.4 232.78 336.4 232.78 336.4 232.78 M 336.4 232.78 C 336.4 232.78 336.4 232.78 336.4 232.78 M 292.19 289.75 C 307.15 271.93 325.32 251.97 339.42 235.41 M 292.19 289.75 C 302.49 276.53 314.9 264.51 339.42 235.41 M 291.93 296.14 C 305.23 281.77 317.35 268.01 342.44 238.03 M 291.93 296.14 C 304.64 280.46 319.24 265.2 342.44 238.03 M 293.63 300.28 C 297.05 293.63 302.71 291.9 313.97 276.88 M 293.63 300.28 C 298.24 294.92 302.52 289.38 313.97 276.88 M 322.5 267.07 C 326.29 259.42 334.76 252.48 345.46 240.66 M 322.5 267.07 C 327.82 260.19 332.67 254.71 345.46 240.66 M 295.34 304.41 C 299.09 300.15 304.14 296.49 313.05 284.03 M 295.34 304.41 C 301.53 296.98 307.46 290.01 313.05 284.03 M 329.45 265.17 C 335.67 255.71 343.17 249.2 348.48 243.28 M 329.45 265.17 C 335.34 257.5 341.8 251.26 348.48 243.28 M 297.05 308.55 C 303.32 302.57 307.82 297.93 312.79 290.43 M 297.05 308.55 C 302.12 303.16 306.17 297.7 312.79 290.43 M 335.75 264.02 C 339.21 258.21 341.95 257.77 351.5 245.9 M 335.75 264.02 C 342.2 256.79 347.78 250.52 351.5 245.9 M 298.75 312.68 C 305.06 307.12 310.04 301.81 314.5 294.57 M 298.75 312.68 C 301.81 308.08 307.02 304.34 314.5 294.57 M 335.49 270.42 C 338.59 267.62 345.38 260.75 354.52 248.53 M 335.49 270.42 C 341.18 263 348.15 256.78 354.52 248.53 M 301.77 315.3 C 308.14 306.97 312.52 302.82 316.21 298.7 M 301.77 315.3 C 306.85 308.58 312.11 302.66 316.21 298.7 M 336.54 275.3 C 342.51 266.14 351.83 258.73 358.19 250.4 M 336.54 275.3 C 344.39 266.42 350.57 258.6 358.19 250.4 M 304.79 317.93 C 308.31 313.23 310.96 308.35 319.22 301.32 M 304.79 317.93 C 308.49 314.94 309.99 310.71 319.22 301.32 M 307.81 320.55 C 312.58 317.04 315.83 311.2 322.24 303.95 M 307.81 320.55 C 310.84 315.59 315.52 312.14 322.24 303.95 M 310.17 323.93 C 315.54 319.68 318.49 311.95 325.26 306.57 M 310.17 323.93 C 312.95 320.51 318.03 315.78 325.26 306.57 M 313.85 325.8 C 318.01 322.88 322.63 318.83 329.59 307.69 M 313.85 325.8 C 319.17 320.03 323.49 313.81 329.59 307.69 M 317.52 327.67 C 321.95 323.52 328.16 318.22 333.92 308.8 M 317.52 327.67 C 321.17 323.18 326.6 316.94 333.92 308.8 M 321.85 328.78 C 328.1 324.62 330.84 317.49 339.57 308.41 M 321.85 328.78 C 326.06 324.63 329.55 319.19 339.57 308.41 M 326.84 329.14 C 333.38 322.52 336.39 317.73 344.55 308.77 M 326.84 329.14 C 329.52 324.87 334.08 320.41 344.55 308.77 M 331.17 330.26 C 337.47 325.85 341.66 320.03 350.2 308.37 M 331.17 330.26 C 335.59 325.18 339.57 322.07 350.2 308.37 M 335.5 331.37 C 340.87 326.51 344.45 322.49 355.18 308.73 M 335.5 331.37 C 340.72 324.16 347 318.44 355.18 308.73 M 340.49 331.73 C 347.42 323.86 352.03 315.68 360.17 309.09 M 340.49 331.73 C 347.21 325.47 353.13 317.89 360.17 309.09 M 346.13 331.34 C 351.16 328.48 353.55 322.09 359.91 315.49 M 346.13 331.34 C 350.2 326.19 354.94 321.1 359.91 315.49 M 351.12 331.7 C 352.78 328.13 355.98 323.71 360.3 321.13 M 351.12 331.7 C 354.36 329.38 356.17 325.96 360.3 321.13 M 356.76 331.31 C 357.64 329.99 359.33 329.17 360.04 327.53 M 356.76 331.31 C 357.88 330.08 359.3 328.84 360.04 327.53" fill="none" stroke="#666666" stroke-width="0.5" stroke-linejoin="round" stroke-linecap="round" stroke-miterlimit="10" pointer-events="none"/><path d="M 333.75 230 M 333.75 230 C 341.22 236.23 344.7 238.62 358.75 251.5 M 333.75 230 C 342.54 237.73 352.11 246.21 358.75 251.5 M 358.75 251.5 C 353.28 258.98 347.03 262.86 333.75 273 M 358.75 251.5 C 351.06 258.38 345.63 263.73 333.75 273 M 333.75 273 C 332.9 267.98 334.11 264.11 333.75 262.5 M 333.75 273 C 334 270.58 333.56 267.27 333.75 262.5 M 333.75 262.5 C 319.53 262.41 309.15 271.69 311 285.25 M 333.75 262.5 C 319.38 263.68 310.86 270.44 311 285.25 M 311 285.25 C 312.97 298.88 320.14 309.05 333.75 308 M 311 285.25 C 313.26 297.51 320.14 306.52 333.75 308 M 333.75 308 C 341.37 307.33 353.77 306.54 359 308 M 333.75 308 C 343.2 307.44 353.53 309.07 359 308 M 359 308 C 359.49 312.46 357.66 319.52 359 330 M 359 308 C 359.27 312.18 358.83 317.06 359 330 M 359 330 C 349.56 329.49 340.96 329.88 333.75 330 M 359 330 C 353.18 329 347.26 330.51 333.75 330 M 333.75 330 C 310.9 331.64 287.14 308.42 289 285.25 M 333.75 330 C 310.74 331.67 290.89 311.62 289 285.25 M 289 285.25 C 289.99 259.95 309.49 241.95 333.75 240.5 M 289 285.25 C 288.64 260.14 307.99 239.49 333.75 240.5 M 333.75 240.5 C 333.11 237.81 333.92 234.28 333.75 230 M 333.75 240.5 C 333.44 236.87 333.31 232.01 333.75 230" fill="none" stroke="rgb(0, 0, 0)" stroke-linejoin="round" stroke-linecap="round" stroke-miterlimit="10" pointer-events="none"/><path d="M 436.51 270.38 C 436.51 270.38 436.51 270.38 436.51 270.38 M 436.51 270.38 C 436.51 270.38 436.51 270.38 436.51 270.38 M 431.66 282.06 C 439.41 273.59 444.33 268.27 450.69 260.18 M 431.66 282.06 C 438.06 273.98 444.74 266.72 450.69 260.18 M 432.05 287.71 C 437.88 281.27 445.84 273.21 458.95 256.76 M 432.05 287.71 C 442.75 275.73 452.38 263.67 458.95 256.76 M 431.79 294.1 C 439.64 283.73 450.91 272.33 465.91 254.86 M 431.79 294.1 C 441.32 282.51 450.52 271.42 465.91 254.86 M 476.4 242.78 C 476.4 242.78 476.4 242.78 476.4 242.78 M 476.4 242.78 C 476.4 242.78 476.4 242.78 476.4 242.78 M 432.19 299.75 C 443.49 286.2 453.34 275.05 479.42 245.41 M 432.19 299.75 C 442.21 288.34 451.91 278.64 479.42 245.41 M 431.93 306.14 C 448.84 287.2 466.09 267.84 482.44 248.03 M 431.93 306.14 C 444.13 290.72 457.04 277.36 482.44 248.03 M 433.63 310.28 C 436.8 304.67 440.49 302.19 453.97 286.88 M 433.63 310.28 C 437.14 306.1 442.52 300.4 453.97 286.88 M 462.5 277.07 C 471.12 269.41 477.8 259.82 485.46 250.66 M 462.5 277.07 C 471.09 268.22 478.2 257.59 485.46 250.66 M 435.34 314.41 C 443.01 309.16 446.53 301.62 453.05 294.03 M 435.34 314.41 C 442.07 306.08 447.63 300.02 453.05 294.03 M 469.45 275.17 C 477.76 267.92 484.67 259.33 488.48 253.28 M 469.45 275.17 C 474.46 268.37 481.01 261.23 488.48 253.28 M 437.05 318.55 C 442.05 312.45 444.79 310.04 452.79 300.43 M 437.05 318.55 C 442.16 312.71 446.75 307.48 452.79 300.43 M 475.75 274.02 C 481.2 270.39 484.8 265.5 491.5 255.9 M 475.75 274.02 C 480.51 270.28 483.21 264.51 491.5 255.9 M 438.75 322.68 C 442.31 320.31 446.3 313.59 454.5 304.57 M 438.75 322.68 C 442.35 317.93 448.06 313.03 454.5 304.57 M 475.49 280.42 C 478.48 274.86 482.81 267.54 494.52 258.53 M 475.49 280.42 C 482.77 272.05 490.14 263.29 494.52 258.53 M 441.77 325.3 C 447.5 319.89 450.51 314.87 456.21 308.7 M 441.77 325.3 C 445.34 320.09 450.77 314.93 456.21 308.7 M 476.54 285.3 C 482.93 279.9 490.07 269.82 498.19 260.4 M 476.54 285.3 C 483.83 277.55 490.34 268.95 498.19 260.4 M 444.79 327.93 C 447.74 322.81 450.81 318.3 459.22 311.32 M 444.79 327.93 C 450.15 323.58 452.86 318.76 459.22 311.32 M 447.81 330.55 C 451.85 326.65 454.6 318.84 462.24 313.95 M 447.81 330.55 C 451.02 327.04 454.29 322.8 462.24 313.95 M 450.17 333.93 C 454.82 331.34 458.57 325.82 465.26 316.57 M 450.17 333.93 C 453.57 328.32 457.88 324.06 465.26 316.57 M 453.85 335.8 C 457.12 330.75 460.62 328.8 469.59 317.69 M 453.85 335.8 C 460.3 329.33 464.68 323.9 469.59 317.69 M 457.52 337.67 C 459.52 331.71 464.39 331.27 473.92 318.8 M 457.52 337.67 C 463.49 329.79 470.41 323.55 473.92 318.8 M 461.85 338.78 C 467.78 333.33 473.98 327.17 479.57 318.41 M 461.85 338.78 C 469.66 331.33 475.86 322.01 479.57 318.41 M 466.84 339.14 C 473.76 330.52 479.33 325.34 484.55 318.77 M 466.84 339.14 C 471.14 332.2 476.4 327.67 484.55 318.77 M 471.17 340.26 C 475.41 332.36 480.75 329.87 490.2 318.37 M 471.17 340.26 C 477.39 332.88 482.85 326.7 490.2 318.37 M 475.5 341.37 C 481.26 333.63 490.95 326.1 495.18 318.73 M 475.5 341.37 C 481.04 333.97 488.04 326.68 495.18 318.73 M 480.49 341.73 C 485.35 334.84 492.72 328.3 500.17 319.09 M 480.49 341.73 C 487.55 332.64 495.54 324.35 500.17 319.09 M 486.13 341.34 C 491.51 336.42 495.64 329.91 499.91 325.49 M 486.13 341.34 C 491.91 336.19 496.4 330.32 499.91 325.49 M 491.12 341.7 C 495.36 336.51 497.01 333.37 500.3 331.13 M 491.12 341.7 C 494.58 337.97 497.78 334.37 500.3 331.13 M 496.76 341.31 C 498.24 339.86 498.97 338.45 500.04 337.53 M 496.76 341.31 C 497.51 340.23 498.2 339.37 500.04 337.53" fill="none" stroke="#666666" stroke-width="0.5" stroke-linejoin="round" stroke-linecap="round" stroke-miterlimit="10" transform="rotate(-180,464,290)" pointer-events="none"/><path d="M 473.75 240 M 473.75 240 C 482.04 246.87 491.95 254.56 498.75 261.5 M 473.75 240 C 482.96 248.79 492.22 255.53 498.75 261.5 M 498.75 261.5 C 492.86 267.51 487.04 270.36 473.75 283 M 498.75 261.5 C 490.43 270.52 479.48 278.36 473.75 283 M 473.75 283 C 473.19 279.46 474.69 276.69 473.75 272.5 M 473.75 283 C 473.72 281.04 474.25 277.93 473.75 272.5 M 473.75 272.5 C 462.92 273.42 450.23 284.19 451 295.25 M 473.75 272.5 C 461.36 274.71 452.15 280.47 451 295.25 M 451 295.25 C 449.28 308.61 462.75 318.82 473.75 318 M 451 295.25 C 449.44 309.6 461.95 318.03 473.75 318 M 473.75 318 C 479.85 319.44 485.37 318.7 499 318 M 473.75 318 C 482.33 317.23 491.36 317.87 499 318 M 499 318 C 497.7 326.07 499.01 328.7 499 340 M 499 318 C 499.82 326 499.8 334.42 499 340 M 499 340 C 490.61 340.78 484.01 340.05 473.75 340 M 499 340 C 488.37 339.38 479.78 340.78 473.75 340 M 473.75 340 C 448.85 339.47 429.65 320.47 429 295.25 M 473.75 340 C 449.72 337.89 428.88 322.01 429 295.25 M 429 295.25 C 428.39 271.59 450.69 249.37 473.75 250.5 M 429 295.25 C 429.08 270.84 449.05 251.88 473.75 250.5 M 473.75 250.5 C 474.6 248.29 473.72 244.31 473.75 240 M 473.75 250.5 C 473.44 246.6 474 242.52 473.75 240" fill="none" stroke="rgb(0, 0, 0)" stroke-linejoin="round" stroke-linecap="round" stroke-miterlimit="10" transform="rotate(-180,464,290)" pointer-events="none"/><path d="M 358.42 241.23 L 408.43 238.76 L 430.64 257.98 L 428.34 341.01 L 359.87 339.2 L 357.08 239.63" fill="rgb(255, 255, 255)" stroke="none" pointer-events="none"/><path d="M 359 240 M 359 240 C 377.61 241.27 395.51 240.4 410 240 M 359 240 C 375.21 239.14 391.54 239.77 410 240 M 410 240 C 415.65 244 421.31 251.18 429 259 M 410 240 C 416.97 247.17 422.95 253.79 429 259 M 429 259 C 429.59 289.21 428.52 325.13 429 340 M 429 259 C 428.55 279.78 428.69 300.27 429 340 M 429 340 C 406.9 337.44 379.56 340.2 359 340 M 429 340 C 401.67 339.19 375.57 339.41 359 340 M 359 340 C 359.11 314.96 358.75 285.48 359 240 M 359 340 C 358.92 310.45 357.85 281.97 359 240 M 359 240 C 359 240 359 240 359 240 M 359 240 C 359 240 359 240 359 240" fill="none" stroke="rgb(0, 0, 0)" stroke-linejoin="round" stroke-linecap="round" stroke-miterlimit="10" pointer-events="none"/><path d="M 409.7 240.35 C 409.7 240.35 409.7 240.35 409.7 240.35 M 409.7 240.35 C 409.7 240.35 409.7 240.35 409.7 240.35 M 410.09 245.99 C 411.28 245.1 411.82 243.78 412.72 242.97 M 410.09 245.99 C 411.13 244.96 411.82 243.79 412.72 242.97 M 409.83 252.39 C 412.85 250.34 414.92 246.83 415.74 245.59 M 409.83 252.39 C 411.77 250.4 414.25 247.6 415.74 245.59 M 410.23 258.03 C 412.28 256.73 414.1 252.48 418.76 248.22 M 410.23 258.03 C 412.25 255.92 414.59 253.93 418.76 248.22 M 412.59 261.41 C 413.27 259.99 417.12 257.52 421.12 251.6 M 412.59 261.41 C 414.44 259.46 415.93 257.18 421.12 251.6 M 418.23 261.01 C 419.55 258.83 421.31 258.23 424.14 254.22 M 418.23 261.01 C 419.51 259.41 421.22 257.67 424.14 254.22 M 423.22 261.37 C 424.07 260.46 425.33 258.67 427.16 256.85 M 423.22 261.37 C 424.38 260.04 426.23 258.13 427.16 256.85" fill="none" stroke="#000000" stroke-opacity="0.05" stroke-width="0.5" stroke-linejoin="round" stroke-linecap="round" stroke-miterlimit="10" pointer-events="none"/><path d="M 410 240 M 410 240 C 408.94 246.7 409.15 249.66 410 259 M 410 240 C 409.17 246.49 410.47 253.62 410 259 M 410 259 C 417.82 259.36 422.48 257.7 429 259 M 410 259 C 417.23 259.12 422.74 258.46 429 259" fill="none" stroke="rgb(0, 0, 0)" stroke-linejoin="round" stroke-linecap="round" stroke-miterlimit="10" pointer-events="none"/></g></svg>